<?xml version="1.0" standalone="no"?>
<!DOCTYPE svg PUBLIC "-//W3C//DTD SVG 20010904//EN"
 "http://www.w3.org/TR/2001/REC-SVG-20010904/DTD/svg10.dtd">
<svg version="1.0" xmlns="http://www.w3.org/2000/svg"
 width="210.000000pt" height="47.000000pt" viewBox="0 0 210.000000 47.000000"
 preserveAspectRatio="xMidYMid meet">

<g transform="translate(0.000000,47.000000) scale(0.100000,-0.100000)"
fill="#000000" stroke="none">
<path d="M428 456 c-79 -28 -128 -79 -148 -155 -14 -53 -6 -103 25 -156 63
-108 230 -115 303 -12 27 39 30 17 2 -27 -23 -39 -81 -73 -138 -82 -24 -4 -40
-9 -37 -12 31 -32 171 28 213 90 38 59 38 147 0 205 -80 122 -259 103 -287
-30 -7 -30 -8 -31 -12 -7 -14 68 39 140 117 159 52 13 126 6 164 -16 21 -12
20 -10 -4 11 -30 25 -95 46 -138 46 -13 -1 -40 -7 -60 -14z"/>
<path d="M0 224 l0 -145 48 3 47 3 0 53 c0 28 2 52 5 52 3 0 21 -25 40 -55
l35 -55 58 0 c31 0 57 2 57 5 0 3 -25 39 -55 80 l-56 75 51 61 c27 33 50 62
50 65 0 2 -25 4 -55 4 -55 0 -55 0 -87 -50 -18 -27 -36 -50 -39 -50 -3 0 -4
23 -1 50 l5 50 -52 0 -51 0 0 -146z"/>
<path d="M796 291 c-26 -28 -16 -53 27 -75 30 -14 35 -21 26 -32 -8 -10 -16
-11 -31 -3 -14 8 -23 8 -31 0 -28 -28 55 -48 88 -21 26 22 15 63 -23 79 -37
17 -37 36 1 36 32 0 46 13 27 25 -25 16 -66 11 -84 -9z"/>
<path d="M960 290 c0 -13 7 -20 20 -20 18 0 20 -7 20 -60 0 -53 2 -60 20 -60
18 0 20 7 20 59 0 54 2 60 23 63 12 2 22 10 22 18 0 11 -15 16 -62 18 -58 3
-63 1 -63 -18z"/>
<path d="M1196 282 c-9 -17 -25 -53 -36 -81 l-20 -51 20 0 c12 0 23 7 26 15 4
9 19 15 35 15 17 0 32 -6 35 -15 4 -8 17 -15 29 -15 l24 0 -34 78 c-19 42 -41
78 -49 80 -8 2 -22 -10 -30 -26z m40 -69 c-2 -3 -11 -3 -19 -1 -11 2 -12 9 -5
28 l10 25 9 -24 c5 -13 7 -26 5 -28z"/>
<path d="M1380 230 c0 -71 2 -80 18 -80 15 0 18 6 14 30 -2 18 0 30 7 30 6 0
17 -13 26 -30 9 -18 23 -30 35 -30 24 0 25 8 4 38 -15 21 -15 25 0 41 36 39 1
81 -66 81 l-38 0 0 -80z m78 27 c3 -12 -3 -17 -22 -17 -25 0 -35 18 -19 34 12
12 38 2 41 -17z"/>
<path d="M1570 290 c0 -13 7 -20 20 -20 18 0 20 -7 20 -60 0 -53 2 -60 20 -60
18 0 20 7 20 60 0 53 2 60 20 60 13 0 20 7 20 20 0 18 -7 20 -60 20 -53 0 -60
-2 -60 -20z"/>
<path d="M1770 246 c0 -67 10 -88 50 -101 11 -3 32 0 47 7 26 12 28 18 31 86
2 59 0 72 -13 72 -11 0 -15 -12 -15 -52 0 -61 -10 -81 -36 -76 -15 2 -20 15
-24 63 -4 47 -9 61 -22 63 -16 3 -18 -5 -18 -62z"/>
<path d="M1987 303 c-4 -3 -7 -39 -7 -80 0 -66 2 -73 20 -73 16 0 20 7 20 30
0 24 4 30 21 30 56 0 80 54 37 84 -23 16 -79 22 -91 9z m71 -46 c2 -12 -3 -17
-17 -17 -15 0 -21 6 -21 21 0 25 33 22 38 -4z"/>
</g>
</svg>
