<?xml version="1.0" encoding="UTF-8"?>
<!DOCTYPE svg PUBLIC "-//W3C//DTD SVG 1.1//EN" "http://www.w3.org/Graphics/SVG/1.1/DTD/svg11.dtd">
<svg xmlns="http://www.w3.org/2000/svg" version="1.1" width="210px" height="47px" style="shape-rendering:geometricPrecision; text-rendering:geometricPrecision; image-rendering:optimizeQuality; fill-rule:evenodd; clip-rule:evenodd" xmlns:xlink="http://www.w3.org/1999/xlink">
<g><path style="opacity:0.886" fill="#0c366e" d="M 40.5,-0.5 C 46.1667,-0.5 51.8333,-0.5 57.5,-0.5C 60.4305,1.24806 63.2639,3.24806 66,5.5C 66.7494,6.63505 66.5827,7.63505 65.5,8.5C 61.0496,7.55141 56.883,5.88475 53,3.5C 49.2584,3.71967 45.4251,4.553 41.5,6C 39.2101,7.77717 37.5434,9.94384 36.5,12.5C 35.8333,12.5 35.5,12.8333 35.5,13.5C 33.1584,21.6495 36.1584,25.4829 44.5,25C 47.1277,23.3745 49.461,21.3745 51.5,19C 59.669,17.1802 63.5024,20.3469 63,28.5C 62.1629,32.1574 60.3296,35.1574 57.5,37.5C 56.8333,37.5 56.5,37.8333 56.5,38.5C 55.8333,38.5 55.5,38.8333 55.5,39.5C 54.8333,39.5 54.5,39.8333 54.5,40.5C 53.209,40.2627 52.209,40.596 51.5,41.5C 51.1667,41.5 50.8333,41.5 50.5,41.5C 48.5853,41.2155 46.9187,41.5489 45.5,42.5C 45.1667,42.5 44.8333,42.5 44.5,42.5C 43.0813,41.5489 41.4147,41.2155 39.5,41.5C 38.791,40.596 37.791,40.2627 36.5,40.5C 36.5,39.8333 36.1667,39.5 35.5,39.5C 35.5,38.8333 35.1667,38.5 34.5,38.5C 34.1583,37.6618 33.4916,37.3284 32.5,37.5C 32.5,36.8333 32.1667,36.5 31.5,36.5C 25.9196,29.7419 24.2529,22.0753 26.5,13.5C 27.1667,13.5 27.5,13.1667 27.5,12.5C 27.5,12.1667 27.5,11.8333 27.5,11.5C 28.1667,11.5 28.5,11.1667 28.5,10.5C 28.8333,9.83333 29.1667,9.16667 29.5,8.5C 32.9009,5.09173 36.5675,2.09173 40.5,-0.5 Z"/></g>
<g><path style="opacity:0.793" fill="#de015a" d="M 53.5,46.5 C 48.1667,46.5 42.8333,46.5 37.5,46.5C 34.4589,44.6381 31.7922,42.3048 29.5,39.5C 29.5,39.1667 29.5,38.8333 29.5,38.5C 30.1667,37.8333 30.8333,37.1667 31.5,36.5C 32.1667,36.5 32.5,36.8333 32.5,37.5C 33.4916,37.3284 34.1583,37.6618 34.5,38.5C 33.4427,39.206 33.7761,39.5393 35.5,39.5C 36.1667,39.5 36.5,39.8333 36.5,40.5C 37.209,41.404 38.209,41.7373 39.5,41.5C 40.9187,42.4511 42.5853,42.7845 44.5,42.5C 44.8333,42.5 45.1667,42.5 45.5,42.5C 47.4147,42.7845 49.0813,42.4511 50.5,41.5C 50.8333,41.5 51.1667,41.5 51.5,41.5C 52.791,41.7373 53.791,41.404 54.5,40.5C 55.1667,40.5 55.5,40.1667 55.5,39.5C 56.1667,39.5 56.5,39.1667 56.5,38.5C 58.2239,38.5393 58.5573,38.206 57.5,37.5C 60.3296,35.1574 62.1629,32.1574 63,28.5C 63.5024,20.3469 59.669,17.1802 51.5,19C 49.461,21.3745 47.1277,23.3745 44.5,25C 36.1584,25.4829 33.1584,21.6495 35.5,13.5C 36.1667,13.5 36.5,13.1667 36.5,12.5C 46.5606,4.10886 56.0606,4.77553 65,14.5C 71.5801,28.9272 67.7468,39.5939 53.5,46.5 Z"/></g>
<g><path style="opacity:0.867" fill="#231814" d="M 29.5,8.5 C 29.1667,9.16667 28.8333,9.83333 28.5,10.5C 27.8333,10.5 27.5,10.8333 27.5,11.5C 27.5,11.8333 27.5,12.1667 27.5,12.5C 26.8333,12.5 26.5,12.8333 26.5,13.5C 23.6979,16.4758 21.0312,19.6425 18.5,23C 22.411,28.064 26.0777,33.2307 29.5,38.5C 29.5,38.8333 29.5,39.1667 29.5,39.5C 25.1539,39.6657 20.8206,39.499 16.5,39C 14.4569,35.7466 12.2902,32.5799 10,29.5C 9.50166,32.8168 9.33499,36.1501 9.5,39.5C 6.16667,39.5 2.83333,39.5 -0.5,39.5C -0.5,29.1667 -0.5,18.8333 -0.5,8.5C 2.83333,8.5 6.16667,8.5 9.5,8.5C 9.33537,11.5184 9.50204,14.5184 10,17.5C 12.186,13.8017 14.8527,10.4683 18,7.5C 21.9607,8.24183 25.7941,8.57516 29.5,8.5 Z"/></g>
<g><path style="opacity:0.637" fill="#221814" d="M 81.5,14.5 C 84.2062,14.5751 86.8728,14.9084 89.5,15.5C 89.0706,20.0452 86.7372,21.5452 82.5,20C 86.1906,21.0239 88.5239,23.3572 89.5,27C 86.1541,34.499 81.4875,35.3323 75.5,29.5C 77.6848,26.1389 80.1848,25.8055 83,28.5C 83.5,28 84,27.5 84.5,27C 78.8823,26.0702 76.3823,22.9036 77,17.5C 78.4087,16.2189 79.9087,15.2189 81.5,14.5 Z"/></g>
<g><path style="opacity:0.734" fill="#221814" d="M 94.5,15.5 C 99.5,15.5 104.5,15.5 109.5,15.5C 109.5,16.8333 109.5,18.1667 109.5,19.5C 107.833,19.5 106.167,19.5 104.5,19.5C 104.5,23.8333 104.5,28.1667 104.5,32.5C 102.833,32.5 101.167,32.5 99.5,32.5C 99.5,28.1667 99.5,23.8333 99.5,19.5C 97.8333,19.5 96.1667,19.5 94.5,19.5C 94.5,18.1667 94.5,16.8333 94.5,15.5 Z"/></g>
<g><path style="opacity:0.689" fill="#221814" d="M 118.5,15.5 C 120.792,15.2436 122.959,15.5769 125,16.5C 127.351,22.169 129.351,27.8357 131,33.5C 126.957,31.7153 122.79,30.382 118.5,29.5C 118.5,30.5 118.5,31.5 118.5,32.5C 116.5,32.5 114.5,32.5 112.5,32.5C 114.779,26.9402 116.779,21.2735 118.5,15.5 Z"/></g>
<g><path style="opacity:0.675" fill="#221814" d="M 136.5,15.5 C 140.182,15.3347 143.848,15.5014 147.5,16C 151.436,19.1589 151.436,22.4922 147.5,26C 148.956,27.7448 150.289,29.5781 151.5,31.5C 147.585,33.3824 144.752,32.3824 143,28.5C 142.51,29.7932 142.343,31.1266 142.5,32.5C 140.5,32.5 138.5,32.5 136.5,32.5C 136.5,26.8333 136.5,21.1667 136.5,15.5 Z M 141.5,19.5 C 142.675,19.281 143.675,19.6143 144.5,20.5C 142.948,21.7979 141.948,21.4646 141.5,19.5 Z"/></g>
<g><path style="opacity:0.686" fill="#221814" d="M 155.5,15.5 C 160.167,15.5 164.833,15.5 169.5,15.5C 169.5,16.8333 169.5,18.1667 169.5,19.5C 168.167,19.5 166.833,19.5 165.5,19.5C 165.5,23.8333 165.5,28.1667 165.5,32.5C 163.5,32.5 161.5,32.5 159.5,32.5C 159.203,28.2325 159.536,24.0659 160.5,20C 158.866,19.5065 157.199,19.3398 155.5,19.5C 155.5,18.1667 155.5,16.8333 155.5,15.5 Z"/></g>
<g><path style="opacity:0.709" fill="#221814" d="M 175.5,15.5 C 177.167,15.5 178.833,15.5 180.5,15.5C 180.335,19.1817 180.501,22.8484 181,26.5C 182.333,27.8333 183.667,27.8333 185,26.5C 185.499,22.8484 185.665,19.1817 185.5,15.5C 187.167,15.5 188.833,15.5 190.5,15.5C 190.666,20.1785 190.499,24.8452 190,29.5C 184.837,35.0623 180.171,34.729 176,28.5C 175.501,24.1794 175.334,19.8461 175.5,15.5 Z"/></g>
<g><path style="opacity:0.692" fill="#221814" d="M 209.5,16.5 C 209.5,19.1667 209.5,21.8333 209.5,24.5C 207.412,25.9395 205.079,26.6061 202.5,26.5C 202.5,28.5 202.5,30.5 202.5,32.5C 200.5,32.5 198.5,32.5 196.5,32.5C 196.5,26.8333 196.5,21.1667 196.5,15.5C 200.931,15.2307 205.265,15.564 209.5,16.5 Z M 202.5,19.5 C 204.983,19.73 205.483,20.3966 204,21.5C 202.97,21.1639 202.47,20.4972 202.5,19.5 Z"/></g>
</svg>
