<?xml version="1.0" encoding="UTF-8"?>
<!DOCTYPE svg PUBLIC "-//W3C//DTD SVG 1.1//EN" "http://www.w3.org/Graphics/SVG/1.1/DTD/svg11.dtd">
<svg xmlns="http://www.w3.org/2000/svg" version="1.1" width="300px" height="300px" style="shape-rendering:geometricPrecision; text-rendering:geometricPrecision; image-rendering:optimizeQuality; fill-rule:evenodd; clip-rule:evenodd" xmlns:xlink="http://www.w3.org/1999/xlink">
<g><path style="opacity:0.982" fill="#2685c6" d="M 131.5,-0.5 C 143.5,-0.5 155.5,-0.5 167.5,-0.5C 234.864,11.3569 277.698,50.3569 296,116.5C 297.23,123.634 298.397,130.634 299.5,137.5C 299.5,145.5 299.5,153.5 299.5,161.5C 291.239,226.176 256.573,270.009 195.5,293C 186.138,295.635 176.805,297.802 167.5,299.5C 155.5,299.5 143.5,299.5 131.5,299.5C 57.1667,285.833 13.1667,241.833 -0.5,167.5C -0.5,155.5 -0.5,143.5 -0.5,131.5C 13.1667,57.1667 57.1667,13.1667 131.5,-0.5 Z"/></g>
<g><path style="opacity:1" fill="#e8f2f9" d="M 138.5,16.5 C 139.376,16.3691 140.043,16.7025 140.5,17.5C 138.191,21.1547 137.024,25.1547 137,29.5C 136.639,24.9453 134.806,21.112 131.5,18C 132.167,17.3333 132.833,17.3333 133.5,18C 136.302,22.7496 137.969,22.2496 138.5,16.5 Z"/></g>
<g><path style="opacity:1" fill="#e1eef7" d="M 162.5,18.5 C 164.078,19.0656 165.412,20.0656 166.5,21.5C 165.675,22.3857 164.675,22.719 163.5,22.5C 163.083,25.0792 163.75,27.2458 165.5,29C 164.216,29.6838 163.049,29.5171 162,28.5C 162.368,25.0249 162.535,21.6916 162.5,18.5 Z"/></g>
<g><path style="opacity:1" fill="#dfedf6" d="M 168.5,17.5 C 170.176,18.1834 170.843,19.5168 170.5,21.5C 172.39,21.2965 173.89,21.9632 175,23.5C 174.216,34.0211 173.716,34.0211 173.5,23.5C 172.167,23.5 170.833,23.5 169.5,23.5C 169.702,25.9892 169.202,28.3225 168,30.5C 167.737,26.1649 167.903,21.8316 168.5,17.5 Z"/></g>
<g><path style="opacity:1" fill="#d9e9f5" d="M 182.5,21.5 C 185.073,21.1485 187.406,21.6485 189.5,23C 187.888,23.7203 186.388,23.5536 185,22.5C 182.668,25.6738 183.502,27.5071 187.5,28C 185.866,28.4935 184.199,28.6602 182.5,28.5C 182.762,29.9778 182.429,31.3112 181.5,32.5C 181.167,31.8333 180.833,31.1667 180.5,30.5C 181.328,27.5212 181.995,24.5212 182.5,21.5 Z"/></g>
<g><path style="opacity:1" fill="#e0edf7" d="M 114.5,21.5 C 116.084,22.3818 117.751,23.2152 119.5,24C 118.572,24.3879 117.905,25.0546 117.5,26C 117.763,28.4325 118.763,30.4325 120.5,32C 119.216,32.6838 118.049,32.5171 117,31.5C 117.16,28.4913 115.993,26.3246 113.5,25C 114.337,23.9887 114.67,22.8221 114.5,21.5 Z"/></g>
<g><path style="opacity:1" fill="#d7e8f4" d="M 151.5,19.5 C 153.369,21.6353 154.036,24.3019 153.5,27.5C 154.822,27.67 155.989,27.3366 157,26.5C 157.192,24.4233 157.692,22.4233 158.5,20.5C 159.833,23.5 159.833,26.5 158.5,29.5C 157.402,28.3845 156.235,28.3845 155,29.5C 153.739,29.2409 152.739,28.5742 152,27.5C 151.503,24.854 151.336,22.1873 151.5,19.5 Z"/></g>
<g><path style="opacity:1" fill="#dcebf6" d="M 126.5,21.5 C 127.629,23.6282 127.796,25.9615 127,28.5C 126.867,31.4138 125.7,33.7471 123.5,35.5C 123.167,35.1667 122.833,34.8333 122.5,34.5C 123.415,33.6721 124.081,32.6721 124.5,31.5C 123.611,28.6112 122.278,25.9446 120.5,23.5C 120.667,23.1667 120.833,22.8333 121,22.5C 122.574,23.9842 123.907,25.6508 125,27.5C 125.315,25.4144 125.815,23.4144 126.5,21.5 Z"/></g>
<g><path style="opacity:1" fill="#d2e5f3" d="M 143.5,19.5 C 148.989,19.504 150.822,22.1707 149,27.5C 144.791,30.5965 141.958,29.5965 140.5,24.5C 141.092,22.5775 142.092,20.9108 143.5,19.5 Z"/></g>
<g><path style="opacity:1" fill="#358bc9" d="M 143.5,21.5 C 144.833,21.5 146.167,21.5 147.5,21.5C 147.5,23.5 147.5,25.5 147.5,27.5C 142.74,27.7993 141.406,25.7993 143.5,21.5 Z"/></g>
<g><path style="opacity:1" fill="#e1eef7" d="M 103.5,23.5 C 104.873,23.3433 106.207,23.51 107.5,24C 102.885,25.077 101.385,27.9103 103,32.5C 105.209,34.7064 107.709,35.0398 110.5,33.5C 111.696,33.8457 111.696,34.3457 110.5,35C 106.498,37.3745 103.332,36.5412 101,32.5C 99.9271,28.9003 100.76,25.9003 103.5,23.5 Z"/></g>
<g><path style="opacity:1" fill="#d7e7f4" d="M 190.5,27.5 C 197.489,27.3365 199.155,30.1699 195.5,36C 188.237,36.8209 186.571,33.9876 190.5,27.5 Z"/></g>
<g><path style="opacity:1" fill="#3289c8" d="M 190.5,29.5 C 192.167,29.5 193.833,29.5 195.5,29.5C 195.981,33.3491 194.314,35.3491 190.5,35.5C 190.5,33.5 190.5,31.5 190.5,29.5 Z"/></g>
<g><path style="opacity:1" fill="#e3eff7" d="M 111.5,25.5 C 113.818,27.6248 114.652,30.2914 114,33.5C 112.269,31.1382 111.435,28.4715 111.5,25.5 Z"/></g>
<g><path style="opacity:1" fill="#e0edf7" d="M 93.5,32.5 C 97.6905,35.5477 99.0239,39.5477 97.5,44.5C 93.107,45.727 92.7737,45.3936 96.5,43.5C 97.8333,42.5 97.8333,41.5 96.5,40.5C 92.1471,43.4939 89.4805,42.3273 88.5,37C 88.5852,35.8926 88.9186,34.8926 89.5,34C 91.0581,33.79 92.3915,33.29 93.5,32.5 Z"/></g>
<g><path style="opacity:1" fill="#2e89c8" d="M 90.5,34.5 C 94.485,34.6294 95.8183,36.4628 94.5,40C 93.2161,40.6838 92.0495,40.5171 91,39.5C 90.5065,37.8659 90.3398,36.1992 90.5,34.5 Z"/></g>
<g><path style="opacity:1" fill="#dbeaf5" d="M 209.5,35.5 C 216.655,37.4333 217.488,41.1 212,46.5C 211.709,44.217 212.209,42.0503 213.5,40C 213.237,38.0543 212.237,37.3877 210.5,38C 209.36,39.9734 208.027,41.8067 206.5,43.5C 206.167,43.1667 205.833,42.8333 205.5,42.5C 207.098,40.3021 208.431,37.9687 209.5,35.5 Z"/></g>
<g><path style="opacity:1" fill="#e1eef7" d="M 200.5,30.5 C 200.438,33.2284 200.438,36.0617 200.5,39C 201.167,39.6667 201.833,39.6667 202.5,39C 203.46,37.5806 204.293,36.0806 205,34.5C 205.718,33.5494 206.551,33.3828 207.5,34C 206.035,36.4296 204.702,38.9296 203.5,41.5C 201.618,40.9067 199.785,40.2401 198,39.5C 197.64,36.2062 198.473,33.2062 200.5,30.5 Z"/></g>
<g><path style="opacity:1" fill="#e3eff8" d="M 82.5,37.5 C 86.2128,38.0416 88.5461,40.2083 89.5,44C 87.3575,42.4591 85.0242,41.1257 82.5,40C 81.4279,42.6762 82.0945,45.0095 84.5,47C 84.1667,47.1667 83.8333,47.3333 83.5,47.5C 81.6729,45.5 80.0062,43.3333 78.5,41C 80.3237,40.34 81.657,39.1733 82.5,37.5 Z"/></g>
<g><path style="opacity:1" fill="#e8f2f9" d="M 226.5,40.5 C 227.465,41.7211 227.298,43.0544 226,44.5C 224,47.1667 222,49.8333 220,52.5C 219.009,51.0611 217.676,50.0611 216,49.5C 215.012,41.4624 217.679,39.7957 224,44.5C 224.662,43.0161 225.496,41.6828 226.5,40.5 Z"/></g>
<g><path style="opacity:1" fill="#348bc9" d="M 218.5,43.5 C 223.655,44.838 223.821,46.838 219,49.5C 215.897,47.888 215.73,45.888 218.5,43.5 Z"/></g>
<g><path style="opacity:1" fill="#fdfdfe" d="M 137.5,44.5 C 190.489,42.7249 227.322,66.0582 248,114.5C 260.96,159.501 250.46,198.001 216.5,230C 177.744,258.928 137.078,261.928 94.5,239C 58.92,214.67 42.42,180.837 45,137.5C 54.6794,85.3209 85.5127,54.3209 137.5,44.5 Z"/></g>
<g><path style="opacity:1" fill="#d9e9f5" d="M 73.5,43.5 C 74.8734,43.3433 76.2068,43.51 77.5,44C 78.6399,45.9734 79.9733,47.8067 81.5,49.5C 79.7399,52.0212 77.4066,52.8545 74.5,52C 73.1235,49.4598 73.7902,47.4598 76.5,46C 74.7788,44.5629 73.2788,45.0629 72,47.5C 71.7003,45.9343 72.2003,44.601 73.5,43.5 Z"/></g>
<g><path style="opacity:1" fill="#3c8fcb" d="M 76.5,47.5 C 79.0414,48.6228 79.0414,49.9561 76.5,51.5C 75.3744,50.1916 75.3744,48.8583 76.5,47.5 Z"/></g>
<g><path style="opacity:1" fill="#dbeaf5" d="M 227.5,51.5 C 229.927,50.7211 229.927,49.5545 227.5,48C 229.603,47.7486 230.937,48.7486 231.5,51C 229.346,58.2996 226.346,58.9663 222.5,53C 222.645,52.228 222.978,51.5613 223.5,51C 225.066,50.235 226.399,50.4017 227.5,51.5 Z"/></g>
<g><path style="opacity:1" fill="#4b95ce" d="M 227.5,51.5 C 228.567,53.8795 227.567,54.8795 224.5,54.5C 224.5,53.5 224.5,52.5 224.5,51.5C 225.5,51.5 226.5,51.5 227.5,51.5 Z"/></g>
<g><path style="opacity:1" fill="#dfecf6" d="M 68.5,47.5 C 69.4972,47.4701 70.1639,47.9701 70.5,49C 71.3333,51.5 72.1667,54 73,56.5C 73.7737,58.403 73.4404,60.0696 72,61.5C 71.7978,59.7444 71.2978,58.0777 70.5,56.5C 68.0324,55.1971 65.699,53.6971 63.5,52C 65.9769,51.7605 68.1435,52.5938 70,54.5C 69.8429,52.1693 69.3429,49.8359 68.5,47.5 Z"/></g>
<g><path style="opacity:1" fill="#d1e5f3" d="M 240.5,54.5 C 242.337,54.6395 242.67,55.3061 241.5,56.5C 240.702,56.0431 240.369,55.3764 240.5,54.5 Z"/></g>
<g><path style="opacity:1" fill="#e5f0f8" d="M 235.5,51.5 C 236.239,51.369 236.906,51.5357 237.5,52C 236.289,53.1131 236.289,54.2798 237.5,55.5C 236.738,55.9106 235.738,56.0773 234.5,56C 232.154,57.5329 231.154,59.3662 231.5,61.5C 230.5,61.1667 229.833,60.5 229.5,59.5C 231.521,56.7653 233.521,54.0986 235.5,51.5 Z"/></g>
<g><path style="opacity:1" fill="#dbeaf5" d="M 60.5,54.5 C 66.2632,54.7827 67.9298,57.616 65.5,63C 61.2598,64.5389 58.5932,63.2056 57.5,59C 58.3146,57.3566 59.3146,55.8566 60.5,54.5 Z"/></g>
<g><path style="opacity:1" fill="#2c88c8" d="M 60.5,56.5 C 64.485,56.6294 65.8183,58.4628 64.5,62C 60.2662,62.267 58.9329,60.4336 60.5,56.5 Z"/></g>
<g><path style="opacity:1" fill="#d9e9f5" d="M 238.5,56.5 C 239.289,56.7828 239.956,57.2828 240.5,58C 232.328,66.6424 231.662,66.1424 238.5,56.5 Z"/></g>
<g><path style="opacity:1" fill="#daeaf5" d="M 240.5,60.5 C 245.729,61.2055 247.229,63.8722 245,68.5C 241.094,71.5328 238.261,70.6995 236.5,66C 237.007,63.4547 238.341,61.6214 240.5,60.5 Z"/></g>
<g><path style="opacity:1" fill="#2a87c7" d="M 240.5,62.5 C 245.655,63.838 245.821,65.838 241,68.5C 237.897,66.888 237.73,64.888 240.5,62.5 Z"/></g>
<g><path style="opacity:1" fill="#ddebf6" d="M 50.5,59.5 C 51.2389,59.369 51.9056,59.5357 52.5,60C 48.5,63.3333 48.5,66.6667 52.5,70C 56.5057,70.9874 58.339,69.4874 58,65.5C 56.6967,64.8878 55.5301,64.5545 54.5,64.5C 54.7093,63.914 55.0426,63.414 55.5,63C 61.6781,64.9485 62.0114,67.9485 56.5,72C 50.3333,72.5 47.5,69.6667 48,63.5C 48.6622,62.0161 49.4955,60.6828 50.5,59.5 Z"/></g>
<g><path style="opacity:1" fill="#e7f1f8" d="M 250.5,70.5 C 247.685,71.1264 245.185,72.4598 243,74.5C 242.833,74.1667 242.667,73.8333 242.5,73.5C 244.19,70.9763 246.357,68.9763 249,67.5C 249.513,68.5266 250.013,69.5266 250.5,70.5 Z"/></g>
<g><path style="opacity:1" fill="#e4eff8" d="M 250.5,70.5 C 252.344,71.2039 252.844,72.5372 252,74.5C 250.446,77.1025 248.28,78.2692 245.5,78C 249.007,76.6704 250.673,74.1704 250.5,70.5 Z"/></g>
<g><path style="opacity:1" fill="#0b6ab4" d="M 195.5,198.5 C 200.666,195.752 205.666,192.752 210.5,189.5C 191.868,206.49 170.201,218.324 145.5,225C 98.8377,232.501 74.5044,212.668 72.5,165.5C 75.1798,130.487 88.0131,99.82 111,73.5C 136.1,79.044 157.434,91.044 175,109.5C 190.682,128.914 194.682,150.581 187,174.5C 182.102,189.47 174.269,202.637 163.5,214C 175.062,210.719 185.728,205.553 195.5,198.5 Z"/></g>
<g><path style="opacity:1" fill="#fdfdfe" d="M 118.5,102.5 C 141.466,106.387 159.632,117.72 173,136.5C 180.571,151.668 181.571,167.334 176,183.5C 171.215,196.247 164.048,207.413 154.5,217C 134.241,223.725 116.741,219.559 102,204.5C 95.4928,194.147 92.3261,182.814 92.5,170.5C 95.0292,145.449 103.696,122.782 118.5,102.5 Z"/></g>
<g><path style="opacity:1" fill="#fcb142" d="M 223.5,122.5 C 225.833,122.5 228.167,122.5 230.5,122.5C 229.254,142.068 222.754,159.735 211,175.5C 202.167,187 192,197.167 180.5,206C 176.94,207.961 173.273,209.295 169.5,210C 187.308,189.581 195.808,165.748 195,138.5C 203.737,131.717 213.237,126.384 223.5,122.5 Z"/></g>
<g><path style="opacity:1" fill="#94c94b" d="M 195.5,198.5 C 194.153,199.028 192.819,199.195 191.5,199C 210.9,182.715 224.733,162.549 233,138.5C 235.381,137.565 237.881,137.232 240.5,137.5C 234.989,154.192 226.156,168.859 214,181.5C 207.637,187.033 201.471,192.699 195.5,198.5 Z"/></g>
<g><path style="opacity:1" fill="#f15f25" d="M 173.5,156.5 C 176.8,171.204 174.3,185.204 166,198.5C 162.44,204.449 158.274,209.949 153.5,215C 151.098,215.814 148.765,215.647 146.5,214.5C 145.4,210.558 145.233,206.558 146,202.5C 151.854,185.117 161.02,169.783 173.5,156.5 Z"/></g>
<g><path style="opacity:1" fill="#edf5fa" d="M 270.5,169.5 C 271.496,169.414 272.329,169.748 273,170.5C 273.376,174.442 275.542,176.109 279.5,175.5C 279.5,176.833 279.5,178.167 279.5,179.5C 273.203,178.275 267.036,176.608 261,174.5C 260.383,173.551 260.549,172.718 261.5,172C 263.326,171.708 265.159,171.875 267,172.5C 268.908,172.285 270.074,171.285 270.5,169.5 Z"/></g>
<g><path style="opacity:1" fill="#e6f0f8" d="M 284.5,176.5 C 285.5,176.5 286.5,176.5 287.5,176.5C 286.459,182.244 285.126,187.91 283.5,193.5C 280.15,193.494 277.15,192.494 274.5,190.5C 274.919,189.328 275.585,188.328 276.5,187.5C 278.071,188.309 279.738,188.643 281.5,188.5C 282.097,184.381 283.097,180.381 284.5,176.5 Z"/></g>
<g><path style="opacity:1" fill="#eef5fa" d="M 261.5,178.5 C 262.5,178.5 263.5,178.5 264.5,178.5C 264.149,181.238 263.482,183.904 262.5,186.5C 264.707,187.635 267.04,188.301 269.5,188.5C 270.159,185.545 270.492,182.545 270.5,179.5C 271.5,179.5 272.5,179.5 273.5,179.5C 275.107,192.381 270.274,195.714 259,189.5C 259.034,185.692 259.868,182.025 261.5,178.5 Z"/></g>
<g><path style="opacity:1" fill="#6fa6d2" d="M 210.5,189.5 C 211.562,187.243 213.228,186.077 215.5,186C 214.211,187.802 212.544,188.969 210.5,189.5 Z"/></g>
<g><path style="opacity:1" fill="#f0f6fb" d="M 255.5,191.5 C 263.993,195.009 271.993,199.343 279.5,204.5C 279.167,205.5 278.5,206.167 277.5,206.5C 262.026,199.769 261.693,200.435 276.5,208.5C 276.081,209.672 275.415,210.672 274.5,211.5C 266.976,207.574 259.642,203.407 252.5,199C 252.63,197.941 253.13,197.108 254,196.5C 256.699,198.634 259.533,199.634 262.5,199.5C 260.258,197.461 257.758,195.795 255,194.5C 254.53,193.423 254.697,192.423 255.5,191.5 Z"/></g>
<g><path style="opacity:1" fill="#f0f6fb" d="M 37.5,217.5 C 36.1667,217.5 34.8333,217.5 33.5,217.5C 33.472,215.418 34.1387,213.584 35.5,212C 33.1218,211.489 30.7885,210.822 28.5,210C 27.1667,209 27.1667,208 28.5,207C 33.0903,207.543 37.757,207.543 42.5,207C 42.8333,206.667 43.1667,206.333 43.5,206C 42.624,204.414 41.624,202.914 40.5,201.5C 41.2421,200.713 42.0754,200.047 43,199.5C 45.35,202.527 46.85,205.86 47.5,209.5C 41.4143,208.969 38.081,211.635 37.5,217.5 Z"/></g>
<g><path style="opacity:1" fill="#f2f7fb" d="M 251.5,203.5 C 254.439,203.918 256.772,205.418 258.5,208C 261.426,208.218 264.26,208.718 267,209.5C 267.167,209.833 267.333,210.167 267.5,210.5C 265.5,211.167 263.5,211.833 261.5,212.5C 263.287,214.858 264.287,217.525 264.5,220.5C 263.167,220.5 261.833,220.5 260.5,220.5C 259.694,216.054 257.694,212.221 254.5,209C 252.802,210.372 250.802,211.538 248.5,212.5C 249.213,209.406 250.213,206.406 251.5,203.5 Z"/></g>
<g><path style="opacity:1" fill="#f0f6fb" d="M 37.5,217.5 C 42.3567,215.486 46.8567,212.819 51,209.5C 52.3654,210.593 52.6987,211.926 52,213.5C 49.5719,214.63 47.4053,216.13 45.5,218C 48.5814,217.476 51.5814,216.309 54.5,214.5C 55.2868,215.242 55.9535,216.075 56.5,217C 49,221.833 41.5,226.667 34,231.5C 32.9783,230.646 32.1449,229.646 31.5,228.5C 35.3318,225.75 39.3318,223.25 43.5,221C 43,220.5 42.5,220 42,219.5C 38.6565,221.516 35.3232,223.516 32,225.5C 30.8315,224.991 29.9981,224.158 29.5,223C 32.4068,221.391 35.0734,219.558 37.5,217.5 Z"/></g>
<g><path style="opacity:1" fill="#f2f8fb" d="M 243.5,213.5 C 247.88,215.7 251.88,218.533 255.5,222C 257.329,223.113 258.163,224.613 258,226.5C 257.586,226.957 257.086,227.291 256.5,227.5C 254.5,226.167 252.5,224.833 250.5,223.5C 244.556,227.71 243.556,226.877 247.5,221C 245.799,220.655 244.466,221.322 243.5,223C 242.365,223.749 241.365,223.583 240.5,222.5C 241.752,220.999 242.752,219.332 243.5,217.5C 242.193,216.135 242.193,214.802 243.5,213.5 Z"/></g>
<g><path style="opacity:1" fill="#edf4fa" d="M 58.5,238.5 C 54.0075,236.69 50.3408,233.69 47.5,229.5C 50.1667,226.167 53.1667,223.167 56.5,220.5C 59.5,222.833 62.1667,225.5 64.5,228.5C 64.1667,229.5 63.5,230.167 62.5,230.5C 60.5171,229.018 58.6837,227.351 57,225.5C 54.7049,227.08 53.3716,229.08 53,231.5C 54.3782,233.213 56.0448,234.547 58,235.5C 58.4828,236.448 58.6495,237.448 58.5,238.5 Z"/></g>
<g><path style="opacity:1" fill="#f1f7fb" d="M 234.5,226.5 C 238.042,227.87 241.209,229.87 244,232.5C 245.944,231.312 247.444,229.646 248.5,227.5C 249.325,226.614 250.325,226.281 251.5,226.5C 251.509,228.308 251.009,229.975 250,231.5C 248.434,233.993 246.434,235.993 244,237.5C 240.502,235.079 237.169,232.412 234,229.5C 233.53,228.423 233.697,227.423 234.5,226.5 Z"/></g>
<g><path style="opacity:1" fill="#f2f7fb" d="M 262.5,227.5 C 264.914,228.777 265.081,230.443 263,232.5C 260.618,235.427 258.118,238.261 255.5,241C 252.72,241.269 250.554,240.102 249,237.5C 248.399,236.035 248.899,235.035 250.5,234.5C 251.869,236.124 253.536,236.624 255.5,236C 257.722,233.044 260.055,230.21 262.5,227.5 Z"/></g>
<g><path style="opacity:1" fill="#f2f7fb" d="M 58.5,238.5 C 61.8384,236.485 64.8384,233.985 67.5,231C 69.6667,230.5 70.5,231.333 70,233.5C 68.3149,235.017 66.8149,236.684 65.5,238.5C 65.9767,239.478 66.6433,240.311 67.5,241C 65.8629,242.951 64.3629,242.784 63,240.5C 61.292,242.543 59.292,244.21 57,245.5C 56.1667,244.667 55.3333,243.833 54.5,243C 56.0414,241.629 57.3747,240.129 58.5,238.5 Z"/></g>
<g><path style="opacity:1" fill="#ebf4f9" d="M 46.5,233.5 C 47.6266,234.122 48.6266,234.955 49.5,236C 48.1667,237.333 46.8333,238.667 45.5,240C 48.3333,242.833 51.1667,245.667 54,248.5C 54.6013,249.965 54.1013,250.965 52.5,251.5C 48.4804,248.314 44.9804,244.647 42,240.5C 41.3333,239.5 41.3333,238.5 42,237.5C 43.6667,236.267 45.1667,234.933 46.5,233.5 Z"/></g>
<g><path style="opacity:1" fill="#f0f6fb" d="M 73.5,236.5 C 74.8699,236.856 75.8699,237.69 76.5,239C 75.548,240.3 75.548,241.467 76.5,242.5C 78.6409,242.888 80.6409,242.888 82.5,242.5C 83.6662,244.365 83.3329,246.032 81.5,247.5C 82.2421,248.287 83.0754,248.953 84,249.5C 85.3333,248.167 86.6667,246.833 88,245.5C 88.9246,246.047 89.7579,246.713 90.5,247.5C 88.1414,251.559 85.3081,255.226 82,258.5C 80.7202,258.387 79.8869,257.72 79.5,256.5C 80.3128,255.186 81.3128,254.019 82.5,253C 81.8333,252.333 81.1667,251.667 80.5,251C 78.9239,251.152 77.5905,251.985 76.5,253.5C 72.8788,251.869 69.8788,249.535 67.5,246.5C 69.4959,243.177 71.4959,239.843 73.5,236.5 Z"/></g>
<g><path style="opacity:1" fill="#f2f8fb" d="M 221.5,237.5 C 224.355,238.752 227.355,239.752 230.5,240.5C 232.818,240.003 235.152,239.67 237.5,239.5C 237.67,240.822 237.337,241.989 236.5,243C 233.183,243.498 229.85,243.665 226.5,243.5C 226.469,246.959 225.802,250.292 224.5,253.5C 223.349,254.731 222.183,254.731 221,253.5C 221.722,250.988 222.222,248.321 222.5,245.5C 222.596,243.074 221.93,240.907 220.5,239C 221.056,238.617 221.389,238.117 221.5,237.5 Z"/></g>
<g><path style="opacity:1" fill="#348cc9" d="M 72.5,244.5 C 74.3841,244.712 75.7174,245.712 76.5,247.5C 73.5812,248.932 72.2479,247.932 72.5,244.5 Z"/></g>
<g><path style="opacity:1" fill="#f2f7fb" d="M 242.5,244.5 C 243.478,244.811 244.145,245.478 244.5,246.5C 239.109,252.224 233.109,257.224 226.5,261.5C 225.692,261.192 225.025,260.692 224.5,260C 226.683,257.65 229.016,255.483 231.5,253.5C 230.752,251.668 229.752,250.001 228.5,248.5C 229.242,247.713 230.075,247.047 231,246.5C 232.351,248.019 233.851,249.352 235.5,250.5C 237.878,248.448 240.211,246.448 242.5,244.5 Z"/></g>
<g><path style="opacity:1" fill="#f3f8fc" d="M 209.5,245.5 C 212.525,249.705 215.192,254.205 217.5,259C 217.387,260.28 216.72,261.113 215.5,261.5C 214.108,260.395 212.941,259.061 212,257.5C 210.989,258.337 209.822,258.67 208.5,258.5C 208.626,256.8 209.293,255.3 210.5,254C 209.637,251.773 208.637,249.607 207.5,247.5C 208.243,246.818 208.909,246.151 209.5,245.5 Z"/></g>
<g><path style="opacity:1" fill="#f4f9fc" d="M 200.5,250.5 C 202.465,250.948 202.798,251.948 201.5,253.5C 199.588,255.156 197.588,255.489 195.5,254.5C 197.015,252.918 198.681,251.584 200.5,250.5 Z"/></g>
<g><path style="opacity:1" fill="#f0f6fb" d="M 67.5,251.5 C 68.4959,251.414 69.3292,251.748 70,252.5C 71.1828,257.223 74.0161,259.223 78.5,258.5C 79.6721,258.919 80.6721,259.585 81.5,260.5C 79.8771,263.621 77.7105,266.288 75,268.5C 70.3713,266.106 66.2046,263.106 62.5,259.5C 64.1933,256.816 65.86,254.149 67.5,251.5 Z"/></g>
<g><path style="opacity:1" fill="#f6fafc" d="M 93.5,252.5 C 100.88,252.043 103.713,255.376 102,262.5C 98,266.5 94,266.5 90,262.5C 88.7563,258.191 89.9229,254.858 93.5,252.5 Z"/></g>
<g><path style="opacity:1" fill="#f1f7fb" d="M 203.5,253.5 C 204.5,253.5 205.5,253.5 206.5,253.5C 206.5,255.833 206.5,258.167 206.5,260.5C 208.167,260.5 209.833,260.5 211.5,260.5C 211.5,261.5 211.5,262.5 211.5,263.5C 209.076,263.192 206.743,263.526 204.5,264.5C 203.826,266.517 202.659,268.183 201,269.5C 200.075,268.953 199.242,268.287 198.5,267.5C 201.036,264.816 202.036,261.816 201.5,258.5C 199.677,259.747 197.677,260.414 195.5,260.5C 195.281,259.325 195.614,258.325 196.5,257.5C 199.059,256.392 201.392,255.059 203.5,253.5 Z"/></g>
<g><path style="opacity:1" fill="#4491cc" d="M 94.5,255.5 C 99.4928,255.997 100.493,258.164 97.5,262C 92.3623,261.889 91.3623,259.722 94.5,255.5 Z"/></g>
<g><path style="opacity:1" fill="#eef5fa" d="M 107.5,255.5 C 109.09,255.628 110.423,256.295 111.5,257.5C 109.09,263.318 106.423,268.985 103.5,274.5C 102.328,274.081 101.328,273.415 100.5,272.5C 103.681,267.143 106.015,261.477 107.5,255.5 Z"/></g>
<g><path style="opacity:1" fill="#eef5fa" d="M 186.5,256.5 C 187.822,256.33 188.989,256.663 190,257.5C 192.641,265.73 194.807,274.063 196.5,282.5C 195.167,282.5 193.833,282.5 192.5,282.5C 190.496,273.817 188.496,265.151 186.5,256.5 Z"/></g>
<g><path style="opacity:1" fill="#3e90cb" d="M 67.5,258.5 C 71.2307,259.07 73.3974,261.07 74,264.5C 71.2893,262.951 69.1226,260.951 67.5,258.5 Z"/></g>
<g><path style="opacity:1" fill="#f1f6fb" d="M 175.5,260.5 C 176.833,260.5 178.167,260.5 179.5,260.5C 179.933,263.166 180.433,265.832 181,268.5C 183.376,271.045 185.876,273.378 188.5,275.5C 188.167,276.5 187.5,277.167 186.5,277.5C 184.578,276.289 182.745,274.956 181,273.5C 179.773,276.381 178.273,279.047 176.5,281.5C 175.5,281.167 174.833,280.5 174.5,279.5C 176.66,273.252 176.993,266.919 175.5,260.5 Z"/></g>
<g><path style="opacity:1" fill="#f3f8fc" d="M 162.5,262.5 C 163.5,262.5 164.5,262.5 165.5,262.5C 165.5,263.5 165.5,264.5 165.5,265.5C 167.167,265.5 168.833,265.5 170.5,265.5C 170.5,266.5 170.5,267.5 170.5,268.5C 169.167,268.5 167.833,268.5 166.5,268.5C 166.5,269.5 166.5,270.5 166.5,271.5C 167.833,271.5 169.167,271.5 170.5,271.5C 170.5,272.5 170.5,273.5 170.5,274.5C 169.167,274.5 167.833,274.5 166.5,274.5C 166.5,275.5 166.5,276.5 166.5,277.5C 165.167,277.5 163.833,277.5 162.5,277.5C 162.5,272.5 162.5,267.5 162.5,262.5 Z"/></g>
<g><path style="opacity:1" fill="#eef5fa" d="M 124.5,262.5 C 130.178,263.168 135.845,264.002 141.5,265C 142.022,265.561 142.355,266.228 142.5,267C 141.381,270.761 140.714,274.594 140.5,278.5C 139.167,278.5 137.833,278.5 136.5,278.5C 136.782,275.09 137.449,271.757 138.5,268.5C 137.624,267.749 136.624,267.249 135.5,267C 131.848,266.501 128.182,266.335 124.5,266.5C 124.5,265.167 124.5,263.833 124.5,262.5 Z"/></g>
<g><path style="opacity:1" fill="#f4f8fc" d="M 212.5,263.5 C 221.653,261.792 223.653,264.626 218.5,272C 215.119,274.245 211.452,274.912 207.5,274C 206.424,272.274 206.257,270.441 207,268.5C 208.704,266.627 210.537,264.96 212.5,263.5 Z"/></g>
<g><path style="opacity:1" fill="#ecf4fa" d="M 151.5,263.5 C 158.865,263.714 161.365,267.38 159,274.5C 152.729,279.121 148.562,277.621 146.5,270C 147.242,267.095 148.909,264.928 151.5,263.5 Z"/></g>
<g><path style="opacity:1" fill="#3c8eca" d="M 213.5,266.5 C 214.833,266.5 216.167,266.5 217.5,266.5C 216.42,270.9 213.754,272.233 209.5,270.5C 210.549,268.784 211.882,267.451 213.5,266.5 Z"/></g>
<g><path style="opacity:1" fill="#f3f8fb" d="M 89.5,267.5 C 93.977,267.848 94.6437,269.848 91.5,273.5C 94.7981,275.16 98.1315,276.827 101.5,278.5C 102.386,279.325 102.719,280.325 102.5,281.5C 97.322,280.384 92.4887,278.384 88,275.5C 87.5721,272.678 88.0721,270.012 89.5,267.5 Z"/></g>
<g><path style="opacity:1" fill="#378cca" d="M 151.5,267.5 C 156.159,267.015 157.492,268.848 155.5,273C 150.728,273.81 149.395,271.977 151.5,267.5 Z"/></g>
<g><path style="opacity:1" fill="#e8f2f9" d="M 128.5,272.5 C 129.833,272.5 131.167,272.5 132.5,272.5C 132.5,275.5 132.5,278.5 132.5,281.5C 136.154,281.942 139.821,282.276 143.5,282.5C 143.5,283.5 143.5,284.5 143.5,285.5C 135.474,284.996 127.474,284.163 119.5,283C 118.663,281.989 118.33,280.822 118.5,279.5C 121.833,279.833 125.167,280.167 128.5,280.5C 128.5,277.833 128.5,275.167 128.5,272.5 Z"/></g>
<g><path style="opacity:1" fill="#f0f6fb" d="M 156.5,278.5 C 160.131,278.16 163.464,278.994 166.5,281C 168.116,287.067 165.616,289.9 159,289.5C 153.318,290.201 150.985,287.868 152,282.5C 153.25,280.807 154.75,279.473 156.5,278.5 Z"/></g>
<g><path style="opacity:1" fill="#4190cb" d="M 157.5,281.5 C 161.126,280.861 162.959,282.194 163,285.5C 160.619,286.435 158.119,286.768 155.5,286.5C 155.365,284.446 156.032,282.779 157.5,281.5 Z"/></g>
</svg>
