<?xml version="1.0" standalone="no"?>
<!DOCTYPE svg PUBLIC "-//W3C//DTD SVG 20010904//EN"
 "http://www.w3.org/TR/2001/REC-SVG-20010904/DTD/svg10.dtd">
<svg version="1.0" xmlns="http://www.w3.org/2000/svg"
 width="600.000000pt" height="600.000000pt" viewBox="0 0 600.000000 600.000000"
 preserveAspectRatio="xMidYMid meet">

<g transform="translate(0.000000,600.000000) scale(0.100000,-0.100000)"
fill="#000000" stroke="none">
<path d="M2785 5873 c-518 -43 -983 -199 -1390 -468 -635 -419 -1075 -1056
-1239 -1795 -50 -227 -61 -335 -61 -620 0 -285 11 -393 61 -620 208 -937 861
-1705 1754 -2063 222 -89 432 -144 696 -183 168 -25 580 -25 749 0 731 107
1355 446 1819 987 360 420 581 903 668 1464 30 189 32 616 5 800 -96 649 -369
1197 -816 1646 -175 174 -269 253 -451 374 -475 318 -1052 490 -1620 483 -74
-1 -153 -3 -175 -5z m603 -102 c876 -134 1626 -656 2060 -1436 180 -323 295
-700 333 -1093 15 -151 6 -513 -16 -652 -97 -619 -367 -1153 -800 -1585 -395
-394 -903 -667 -1431 -768 -228 -44 -309 -52 -559 -52 -258 1 -343 9 -570 56
-1054 217 -1903 1039 -2160 2093 -90 369 -99 824 -24 1201 167 841 719 1568
1488 1959 328 167 641 256 1046 300 105 11 504 -3 633 -23z"/>
<path d="M2785 5694 c-663 -55 -1263 -331 -1721 -790 -1058 -1059 -1058 -2773
0 -3828 1061 -1059 2773 -1059 3831 -1 453 453 726 1036 786 1679 14 154 7
465 -15 611 -88 593 -353 1122 -771 1540 -414 414 -939 678 -1525 765 -131 20
-467 34 -585 24z m525 -50 c581 -68 1145 -346 1570 -775 352 -354 607 -820
714 -1299 45 -202 60 -347 60 -580 0 -323 -36 -545 -137 -850 -54 -163 -176
-424 -263 -560 -479 -752 -1259 -1213 -2129 -1259 -961 -51 -1853 403 -2388
1214 -89 135 -218 390 -272 539 -173 472 -209 1005 -99 1491 173 775 680 1432
1384 1799 482 250 1006 345 1560 280z"/>
<path d="M2857 5519 c-57 -6 -90 -19 -50 -19 46 0 48 -22 12 -160 -19 -72 -38
-129 -43 -127 -11 4 -136 237 -136 254 0 6 12 16 28 22 24 10 21 11 -22 6 -27
-3 -62 -5 -77 -5 -33 0 -39 -17 -8 -22 16 -2 42 -44 110 -173 48 -93 92 -171
96 -172 5 -2 30 78 57 177 40 148 54 185 74 201 14 10 23 21 21 22 -2 2 -30 0
-62 -4z"/>
<path d="M3040 5512 l25 -8 -3 -120 c-2 -65 -6 -141 -10 -169 -7 -45 -10 -50
-37 -56 l-30 -5 30 -7 c17 -3 73 -9 125 -12 52 -3 111 -8 131 -11 l37 -5 10
68 c5 37 8 70 6 72 -2 2 -12 -17 -23 -42 -25 -57 -43 -67 -126 -67 -79 0 -80
2 -70 105 6 68 9 75 29 75 33 0 62 -26 71 -62 8 -32 8 -31 16 22 4 30 7 70 8
89 l1 34 -23 -34 c-18 -27 -30 -35 -60 -37 l-38 -3 6 68 c10 100 6 97 76 90
70 -6 106 -27 115 -65 14 -66 23 -66 23 -1 l1 66 -47 6 c-83 10 -269 17 -243
9z"/>
<path d="M3470 5471 c0 -6 9 -11 20 -11 33 0 34 -25 5 -138 -54 -208 -52 -205
-86 -200 -16 3 -29 1 -29 -3 0 -8 9 -11 80 -29 25 -6 53 -13 63 -16 9 -3 17
-1 17 4 0 6 -11 13 -25 16 -14 4 -25 11 -25 16 0 14 38 152 44 157 7 7 70 -23
85 -41 10 -12 12 -33 8 -82 -8 -88 2 -114 47 -114 36 0 66 28 66 60 -1 8 -7 3
-16 -12 -31 -57 -54 -27 -54 70 0 44 -4 57 -26 77 l-27 25 45 0 c63 0 98 28
98 80 0 55 -35 81 -156 114 -55 15 -107 29 -116 32 -10 3 -18 1 -18 -5z m171
-52 c51 -17 69 -38 69 -76 0 -40 -37 -83 -72 -83 -38 0 -98 20 -98 33 0 17 26
113 34 126 9 14 25 14 67 0z"/>
<path d="M2363 5442 c-60 -17 -106 -41 -50 -28 34 8 36 3 77 -164 17 -69 33
-133 36 -143 4 -13 -4 -21 -28 -32 -45 -19 -18 -19 70 2 75 17 95 32 40 29
l-31 -1 -38 150 c-21 83 -39 155 -39 162 0 7 12 19 28 27 35 19 13 18 -65 -2z"/>
<path d="M2123 5371 c-62 -26 -85 -47 -39 -35 18 4 30 0 42 -14 18 -22 104
-214 98 -221 -2 -2 -73 38 -158 88 l-155 93 -45 -21 c-52 -23 -59 -33 -18 -25
18 4 32 1 38 -8 16 -21 114 -255 114 -272 0 -9 -9 -25 -21 -37 -11 -11 -19
-22 -17 -24 6 -6 128 48 128 57 0 5 -10 6 -23 3 -15 -4 -28 0 -39 12 -19 21
-110 232 -106 245 2 5 81 -39 177 -97 96 -58 176 -103 179 -101 2 3 -23 70
-57 149 -65 153 -71 180 -44 209 9 10 14 20 12 22 -2 2 -32 -9 -66 -23z"/>
<path d="M3919 5281 c-23 -23 -29 -38 -29 -72 0 -41 4 -47 76 -114 69 -64 76
-75 70 -99 -16 -63 -79 -84 -140 -46 -43 26 -61 63 -61 122 0 26 -2 48 -5 48
-7 0 -59 -124 -54 -129 2 -2 11 2 20 10 14 11 20 8 47 -24 33 -38 89 -67 129
-67 41 0 86 36 99 79 17 56 3 84 -76 154 -51 45 -65 64 -65 86 0 56 69 82 123
47 34 -23 51 -61 52 -112 0 -24 3 -44 6 -44 5 0 49 104 49 116 0 2 -11 2 -24
-2 -18 -4 -27 -1 -36 16 -17 32 -70 60 -113 60 -29 0 -46 -7 -68 -29z"/>
<path d="M1630 5189 c-30 -22 -56 -44 -58 -49 -2 -4 15 -6 36 -3 l40 5 79
-111 c43 -61 81 -123 85 -136 11 -44 -10 -93 -54 -125 -43 -32 -81 -37 -122
-19 -23 11 -176 212 -192 252 -4 12 2 27 17 44 34 38 4 25 -77 -33 -65 -47
-87 -76 -36 -50 16 8 33 11 39 8 5 -4 49 -62 97 -129 47 -68 95 -127 106 -133
33 -18 86 -11 141 18 69 36 99 79 99 143 0 43 -7 58 -65 141 -36 51 -73 107
-82 125 -15 29 -15 34 0 57 32 49 20 47 -53 -5z"/>
<path d="M4260 5173 c0 -4 9 -16 20 -28 19 -20 19 -20 -65 -155 -47 -74 -92
-136 -100 -138 -7 -2 -23 2 -34 8 -12 6 -21 7 -21 3 0 -11 140 -97 146 -90 3
3 -4 10 -15 17 -12 6 -21 16 -21 23 0 15 158 269 173 279 6 4 19 2 28 -3 22
-11 32 -12 25 0 -8 12 -136 92 -136 84z"/>
<path d="M4445 4970 c-27 -27 -47 -50 -43 -50 3 0 26 11 49 25 24 14 53 25 64
25 23 0 65 -26 65 -40 0 -10 -194 -245 -210 -255 -5 -3 -22 2 -36 12 -15 9
-25 12 -23 6 6 -15 129 -117 134 -111 3 3 -4 13 -15 23 -11 10 -20 22 -20 27
0 17 212 259 223 255 6 -2 20 -15 31 -30 18 -25 19 -31 8 -70 -7 -23 -16 -51
-19 -62 -3 -11 15 7 40 39 l45 60 -116 98 c-64 54 -119 98 -122 98 -3 0 -28
-22 -55 -50z"/>
<path d="M2785 4969 c-271 -25 -570 -122 -808 -262 -516 -304 -864 -814 -963
-1413 -25 -147 -25 -466 -1 -609 112 -654 508 -1192 1088 -1477 471 -232 1008
-268 1509 -102 633 211 1120 727 1290 1369 52 196 64 291 64 515 0 224 -12
322 -64 515 -248 936 -1142 1555 -2115 1464z m427 -63 c849 -106 1520 -743
1673 -1591 25 -137 31 -424 11 -572 -74 -564 -389 -1061 -871 -1375 -751 -489
-1752 -387 -2394 245 -380 374 -580 847 -581 1374 -1 1158 1016 2061 2162
1919z"/>
<path d="M2824 4850 c-239 -21 -462 -85 -684 -197 -180 -90 -300 -176 -448
-318 -228 -218 -384 -463 -480 -750 -162 -483 -123 -994 109 -1445 98 -191
180 -302 344 -465 156 -157 266 -239 443 -332 277 -147 552 -215 872 -215 367
1 682 90 993 283 114 71 189 130 306 244 677 655 758 1702 190 2458 -94 126
-284 310 -407 397 -169 119 -395 227 -582 279 -188 52 -466 78 -656 61z m66
-62 c0 -18 3 -50 6 -70 5 -28 3 -39 -7 -41 -8 -3 -38 -11 -66 -20 -29 -8 -55
-12 -57 -9 -2 4 -7 42 -11 84 l-7 77 48 4 c27 2 59 4 72 5 19 2 22 -3 22 -30z
m160 -30 c0 -72 -3 -76 -49 -101 -30 -16 -35 -16 -51 -2 -9 8 -22 15 -28 15
-8 0 -12 24 -12 75 l0 75 70 0 70 0 0 -62z m158 47 c3 -2 -19 -159 -23 -163
-1 -2 -30 5 -64 15 l-61 18 0 66 c0 36 3 69 7 73 6 6 132 -2 141 -9z m-475
-18 c3 -8 8 -44 12 -80 8 -72 10 -68 -49 -71 -24 -1 -31 -7 -38 -33 -5 -18
-12 -33 -17 -33 -4 0 -15 37 -25 83 -10 45 -20 92 -23 104 -4 19 1 23 39 31
63 14 95 14 101 -1z m611 -3 c9 -3 16 -13 16 -22 0 -37 -44 -222 -52 -214 -4
4 -14 25 -21 47 -13 36 -18 40 -48 40 -38 0 -38 -3 -25 99 l8 69 53 -7 c29 -3
60 -9 69 -12z m-740 -141 l27 -128 -28 -83 c-16 -46 -33 -83 -38 -83 -9 0
-124 350 -125 378 0 13 78 41 116 42 19 1 24 -11 48 -126z m865 111 c41 -12
51 -19 47 -32 -3 -9 -51 -163 -106 -341 -56 -178 -99 -325 -97 -327 2 -2 52
148 111 334 60 185 110 339 112 341 4 4 134 -39 134 -45 0 -2 -63 -158 -140
-346 -77 -187 -139 -343 -137 -345 2 -2 57 124 122 279 65 156 130 311 146
346 l28 63 61 -31 c33 -17 60 -33 60 -37 0 -6 -220 -438 -362 -710 -44 -84
-78 -153 -75 -153 3 0 88 159 190 353 102 193 204 387 227 430 l42 77 59 -32
c32 -18 59 -36 59 -41 0 -6 -426 -685 -514 -819 -10 -16 -16 -28 -13 -28 3 0
125 188 273 418 147 229 269 419 270 421 5 6 114 -74 113 -84 0 -5 -71 -102
-157 -215 -140 -182 -161 -205 -184 -202 -24 2 -28 -3 -49 -65 -17 -51 -44
-96 -118 -192 -52 -69 -91 -122 -85 -118 6 3 42 47 80 97 38 49 72 90 76 90 4
0 -2 -26 -13 -57 -11 -32 -17 -64 -14 -72 3 -8 -10 -32 -32 -55 l-38 -41 45
41 c41 37 49 41 88 37 23 -3 42 -9 42 -13 0 -5 -20 -25 -44 -45 -40 -32 -50
-36 -95 -34 -28 2 -52 1 -53 -2 -2 -2 -23 -27 -48 -54 -45 -50 -45 -50 -4 -12
22 20 43 34 47 31 17 -17 5 -62 -22 -88 l-28 -27 -44 22 c-24 13 -45 27 -47
31 -2 4 -12 8 -23 8 -11 0 -22 6 -25 14 -3 8 -11 13 -17 10 -7 -2 -19 0 -27 6
-12 8 -11 17 13 65 15 31 24 54 19 51 -4 -2 -18 -27 -31 -54 -24 -52 -43 -62
-98 -54 -27 4 -31 37 -9 67 14 19 11 49 -4 40 -4 -2 -13 21 -20 53 -7 31 -15
59 -19 62 -24 18 -48 69 -46 100 1 22 1 25 -2 8 -5 -32 -14 -34 -48 -12 -15
10 -26 27 -26 43 -2 23 -2 24 -6 4 -6 -34 -21 -28 -25 10 -2 17 -7 32 -13 32
-5 0 -11 -15 -13 -32 -7 -67 -21 -30 -25 60 l-3 92 -2 -95 c-2 -94 -2 -96 -31
-113 -22 -13 -30 -14 -34 -5 -3 7 -6 4 -6 -7 -1 -11 -14 -34 -30 -50 -16 -18
-34 -53 -41 -83 -8 -29 -17 -52 -22 -52 -4 0 -5 -7 -2 -15 4 -8 1 -15 -6 -15
-9 0 -7 -7 4 -25 9 -13 16 -33 16 -44 0 -18 -6 -20 -50 -18 -27 1 -50 0 -50
-3 0 -3 -11 -7 -24 -8 -18 -1 -30 7 -46 33 -12 19 -24 35 -26 35 -6 0 2 -14
28 -52 18 -27 18 -27 -2 -38 -16 -9 -25 -8 -38 2 -15 12 -16 11 -4 -4 11 -14
10 -18 -8 -28 -20 -10 -27 -7 -64 27 -40 37 -40 37 -8 3 17 -20 32 -39 32 -43
0 -11 -160 -88 -170 -82 -6 4 -10 2 -10 -3 0 -5 -11 -17 -24 -25 -22 -15 -28
-13 -121 35 -54 28 -95 46 -92 42 3 -5 42 -27 86 -49 45 -21 81 -42 81 -47 0
-12 -59 -40 -70 -33 -6 3 -10 1 -10 -5 0 -5 -16 -18 -35 -27 -33 -16 -38 -16
-91 1 -31 10 -58 16 -60 13 -3 -3 6 -7 20 -11 14 -3 37 -11 52 -17 l28 -10
-32 -19 c-30 -19 -44 -50 -22 -50 6 0 10 -16 10 -35 0 -32 -2 -35 -32 -37
l-33 -1 32 -4 32 -4 0 -146 c1 -119 -2 -149 -14 -163 -14 -16 -14 -18 0 -23
23 -9 21 -77 -2 -78 -17 -1 -17 -2 0 -6 12 -3 17 -15 17 -41 l0 -37 -373 -152
c-204 -84 -379 -155 -389 -158 -12 -5 -21 6 -37 50 -12 31 -21 61 -21 68 0 8
150 60 390 137 214 68 388 125 386 127 -2 2 -178 -50 -392 -117 -213 -66 -391
-117 -394 -113 -8 9 -41 125 -37 129 1 2 168 40 370 85 202 45 365 84 363 86
-4 4 -696 -144 -722 -154 -15 -6 -23 18 -31 87 l-5 56 368 49 c203 27 362 51
354 53 -8 1 -172 -18 -364 -43 -192 -25 -353 -45 -357 -45 -10 0 -23 129 -14
138 3 4 154 15 333 24 218 11 267 15 147 12 -99 -2 -249 -7 -332 -11 l-153 -6
0 73 0 73 163 -6 c89 -4 243 -9 342 -11 113 -3 55 2 -157 13 -186 9 -340 20
-344 24 -11 11 7 137 20 137 6 0 135 -16 285 -35 151 -20 281 -34 290 -33 9 2
-118 21 -281 43 l-298 40 0 30 c0 29 15 103 22 110 2 2 156 -30 343 -71 187
-40 344 -73 349 -71 4 1 -140 36 -320 76 -181 41 -339 78 -351 82 -22 8 -22 9
-6 66 9 32 19 62 23 66 4 5 168 -42 365 -103 197 -61 359 -109 361 -107 2 2
-157 54 -354 117 -196 62 -359 115 -361 117 -5 4 25 102 38 122 7 11 88 -19
402 -148 216 -88 394 -159 396 -158 1 2 -174 77 -390 167 -215 90 -393 164
-395 165 -9 6 53 125 65 125 26 0 193 -95 188 -107 -4 -12 44 -33 76 -33 10 0
120 -52 244 -116 124 -64 225 -113 225 -111 0 3 -93 54 -207 113 l-208 108 60
18 c33 10 70 18 82 18 12 0 102 -51 200 -113 216 -137 203 -129 203 -124 0 3
-63 45 -140 93 -77 49 -140 92 -140 97 0 4 13 7 28 7 16 0 37 9 47 20 17 19
20 17 181 -106 90 -69 164 -123 164 -120 0 3 -67 57 -150 121 -82 63 -150 120
-150 124 0 10 2 9 94 -14 68 -17 59 -11 201 -138 l110 -99 -114 109 -115 110
47 5 c47 6 48 5 110 -56 41 -41 46 -44 13 -10 -31 33 -50 63 -52 82 -2 17 -12
53 -23 81 -10 28 -16 51 -11 51 4 0 35 -36 69 -80 34 -44 65 -80 67 -80 3 0
-32 48 -77 107 -58 77 -88 126 -104 173 -20 59 -25 65 -48 62 -24 -2 -60 40
-349 424 -5 7 10 24 44 48 29 20 58 36 63 36 6 0 26 -26 46 -58 176 -276 513
-799 521 -807 17 -16 8 -3 -275 446 -148 233 -268 429 -267 434 1 6 27 25 58
42 l58 33 223 -425 c123 -234 226 -425 228 -425 2 0 -49 102 -113 228 -65 125
-164 317 -221 426 -56 110 -101 201 -100 202 12 10 109 54 119 54 7 0 24 -28
39 -63 108 -266 333 -796 336 -794 1 2 -74 190 -167 418 -94 228 -173 423
-176 435 -5 18 3 24 56 43 34 13 66 19 70 14 7 -7 33 -87 183 -560 33 -106 62
-191 65 -189 2 2 -19 76 -47 164 -53 166 -58 188 -40 177 5 -4 31 -10 56 -13
l47 -7 30 -140 c17 -77 32 -133 33 -125 2 8 -10 71 -26 140 -31 139 -33 130
40 144 l37 6 18 -140 c9 -77 20 -138 22 -135 3 2 -3 66 -13 140 -10 75 -16
137 -14 139 19 16 60 13 83 -5 25 -20 26 -25 28 -127 l2 -107 3 103 4 102 49
0 50 0 -4 -152 c-4 -146 -3 -147 4 -38 4 63 8 138 9 167 1 41 5 55 21 63 29
15 85 -1 83 -25 -1 -10 -4 -50 -6 -89 l-6 -71 13 82 c7 46 14 85 17 87 4 4 89
-13 97 -20 2 -1 -10 -66 -28 -144 -18 -78 -30 -143 -28 -146 3 -2 20 63 38
146 30 138 35 150 55 150 12 0 36 5 53 11 l30 10 -30 90 -30 89 27 118 c35
156 34 152 54 152 9 0 41 -7 70 -16z m-522 -109 c18 -13 24 -13 54 2 31 16 38
15 121 -6 54 -15 100 -21 119 -17 29 6 31 4 27 -19 -3 -13 0 -26 7 -29 17 -6
26 -59 12 -68 -8 -5 -6 -8 5 -8 22 0 36 -59 17 -72 -11 -8 -10 -9 3 -5 17 6
33 -17 23 -33 -3 -5 -1 -11 5 -15 5 -3 10 -15 10 -26 0 -16 -7 -19 -54 -19
-70 0 -185 36 -213 66 -21 23 -21 24 -3 74 10 27 15 50 10 50 -5 0 -11 -13
-15 -30 -12 -56 -25 -42 -26 29 -2 86 -2 87 -13 98 -8 8 -1 -111 10 -169 4
-22 -3 -36 -34 -70 -35 -37 -42 -40 -56 -29 -10 9 -16 29 -16 58 0 24 -4 42
-8 39 -5 -3 -7 -19 -4 -36 4 -25 1 -30 -17 -30 -17 0 -21 6 -21 29 0 17 -4 33
-10 36 -6 4 -10 -8 -10 -28 0 -35 -1 -35 -72 -58 -43 -13 -100 -23 -138 -23
-67 -1 -72 3 -56 49 2 6 7 25 11 43 4 17 10 32 14 32 4 0 7 8 8 18 1 18 5 33
25 102 13 44 14 45 53 42 22 -1 67 7 100 17 73 24 104 26 132 6z m-926 -418
c102 -132 151 -203 142 -205 -8 -2 -32 3 -54 12 -22 9 -52 16 -67 16 -22 0
-51 26 -161 146 l-134 147 49 43 c27 24 54 43 59 43 6 0 80 -91 166 -202z
m2142 160 l47 -42 -130 -142 c-89 -98 -138 -143 -152 -143 -12 0 -45 -8 -74
-17 -30 -9 -56 -14 -60 -11 -7 8 296 398 310 398 6 0 32 -19 59 -43z m-1093 4
c0 -5 -9 -11 -20 -14 -22 -6 -26 3 -8 21 11 11 28 7 28 -7z m-1206 -196 c69
-75 126 -139 126 -143 0 -4 -9 -13 -21 -20 -18 -11 -24 -11 -38 2 -10 9 -36
16 -62 16 -42 1 -49 6 -138 91 l-95 89 49 50 c27 28 50 50 51 50 1 0 59 -61
128 -135z m2410 86 l48 -48 -54 -50 c-125 -117 -133 -123 -174 -123 -22 0 -49
-7 -61 -15 -18 -13 -26 -13 -43 -3 -11 7 -19 16 -18 19 5 11 242 269 248 269
3 0 27 -22 54 -49z m-2516 -184 c40 -37 50 -52 40 -58 -27 -18 -91 -30 -121
-24 -34 8 -137 81 -137 97 0 6 18 32 41 59 l41 49 42 -36 c22 -21 65 -60 94
-87z m2661 18 c0 -5 -23 -28 -51 -50 -45 -34 -58 -39 -102 -39 -28 0 -66 7
-84 15 l-34 14 94 83 93 83 42 -48 c24 -26 42 -52 42 -58z m59 -74 l41 -58
-69 -47 c-38 -25 -74 -46 -79 -46 -5 0 -19 28 -30 62 -16 48 -18 64 -9 69 7 4
33 23 58 43 25 20 45 36 46 36 1 0 20 -26 42 -59z m-2893 8 c30 -23 55 -45 55
-48 0 -13 -32 -106 -40 -114 -3 -4 -41 15 -83 43 l-77 50 36 55 c20 30 41 55
46 55 5 0 33 -19 63 -41z m2402 -14 c19 -13 24 -13 50 0 37 20 52 19 134 -6
38 -12 85 -19 104 -17 24 3 35 0 36 -9 2 -22 4 -28 13 -42 5 -8 4 -16 -5 -22
-11 -7 -11 -9 2 -9 16 0 46 -91 35 -109 -3 -5 1 -12 10 -15 9 -4 14 -13 10
-21 -3 -8 -1 -15 4 -15 6 0 10 -11 10 -25 0 -25 -13 -30 -75 -26 -51 3 -185
46 -185 59 0 11 -3 12 -14 3 -7 -6 -21 -9 -30 -5 -9 3 -16 2 -16 -3 0 -5 -13
-17 -30 -26 -24 -15 -33 -15 -49 -5 -27 16 -29 122 -3 139 15 9 15 10 -1 5
-10 -3 -22 -6 -27 -6 -4 0 -6 -14 -4 -30 3 -25 -1 -32 -21 -40 -32 -12 -32
-22 0 -14 18 4 25 2 25 -9 0 -10 -15 -16 -47 -21 -27 -3 -76 -15 -110 -27 -73
-24 -169 -24 -166 1 3 27 26 105 32 110 3 3 7 12 8 20 1 8 10 44 20 80 l18 65
40 -3 c22 -1 67 7 100 17 73 24 104 26 132 6z m-2059 -11 c20 -14 24 -14 44 0
30 21 63 20 134 -4 32 -12 76 -20 97 -18 38 2 39 2 58 -51 10 -30 16 -58 13
-62 -3 -5 -1 -9 5 -9 8 0 16 -24 34 -107 2 -7 6 -16 10 -19 4 -4 7 -16 7 -26
0 -31 -81 -27 -198 9 -78 24 -83 27 -80 52 1 14 -2 26 -7 26 -5 0 -8 -12 -6
-27 2 -24 -1 -28 -23 -28 -14 0 -26 -4 -26 -10 0 -5 -9 -14 -19 -20 -15 -8
-28 -5 -55 11 l-36 21 0 81 c0 64 4 89 20 115 11 17 16 32 11 32 -5 0 -23 -25
-40 -56 -16 -30 -23 -50 -15 -44 12 11 14 2 14 -59 0 -55 -3 -71 -14 -71 -8 0
-51 -11 -95 -25 -125 -40 -206 -34 -186 12 12 26 12 25 20 61 4 17 10 32 14
32 4 0 7 8 8 18 1 18 5 33 25 102 13 44 14 45 53 42 22 -1 67 7 100 17 74 24
104 26 133 5z m-413 -111 c41 -27 75 -52 75 -56 0 -15 -31 -117 -35 -117 -13
0 -195 103 -193 109 16 34 65 111 71 111 4 0 41 -21 82 -47z m3050 -5 c17 -29
31 -56 33 -59 3 -7 -170 -99 -185 -99 -12 0 -46 112 -36 121 17 15 139 89 148
89 6 0 24 -24 40 -52z m-1546 -42 c64 -34 124 -121 133 -196 l3 -25 -182 -3
c-204 -3 -193 -7 -169 71 18 62 50 104 104 138 52 33 71 35 111 15z m1625
-109 l26 -58 -42 -18 c-24 -10 -170 -71 -326 -136 -155 -65 -280 -120 -279
-122 2 -2 147 55 322 127 175 71 321 130 325 130 13 0 54 -120 44 -130 -5 -4
-154 -55 -331 -111 -178 -56 -321 -104 -319 -106 2 -2 151 42 331 98 179 56
330 98 334 93 13 -14 40 -123 33 -128 -4 -2 -173 -42 -374 -87 -202 -46 -366
-85 -364 -87 3 -3 299 60 676 143 49 11 66 11 72 2 12 -19 21 -118 12 -126 -5
-5 -141 -26 -303 -47 -162 -21 -287 -40 -278 -42 8 -2 141 13 294 32 153 20
284 36 290 36 12 0 30 -126 19 -137 -3 -4 -158 -14 -344 -24 -185 -10 -263
-16 -172 -14 91 3 245 8 343 11 l177 7 0 -73 0 -73 -152 6 c-84 4 -234 9 -333
11 -121 3 -73 -1 147 -12 179 -10 330 -20 333 -24 4 -4 4 -37 0 -74 l-7 -66
-41 6 c-233 31 -610 77 -619 74 -6 -2 139 -24 322 -48 l332 -45 -6 -56 c-7
-73 -15 -91 -35 -85 -41 13 -674 147 -677 143 -2 -2 144 -36 324 -77 180 -40
337 -77 349 -81 22 -8 22 -9 6 -66 -9 -32 -19 -62 -23 -66 -4 -5 -168 42 -365
103 -197 61 -359 109 -361 107 -2 -2 157 -54 354 -117 196 -63 359 -115 361
-117 5 -4 -25 -102 -38 -122 -8 -12 -272 90 -749 290 -51 21 -53 23 -50 58 2
20 8 35 13 34 6 -1 24 -4 40 -7 20 -4 16 -1 -12 10 -44 16 -47 22 -37 62 6 21
11 23 48 18 l41 -5 -34 10 c-55 17 -59 28 -57 183 l1 141 35 6 35 6 -37 2
c-30 1 -38 5 -38 20 0 31 11 51 29 52 10 0 11 2 4 6 -7 2 -13 10 -13 17 0 7
-12 18 -26 24 -15 7 -22 17 -18 24 5 8 2 9 -9 5 -21 -8 -89 31 -80 46 4 7 0 8
-11 4 -19 -7 -76 18 -76 33 0 5 -7 7 -15 4 -12 -5 -15 2 -15 30 0 20 3 36 8
36 4 0 18 10 32 21 l25 21 -27 -16 c-37 -22 -38 -21 -38 22 1 36 5 40 135 137
73 55 139 101 145 103 7 3 17 -3 22 -12 6 -10 22 -16 43 -16 19 0 35 -3 35 -7
0 -5 -62 -47 -138 -95 -120 -76 -198 -129 -167 -115 6 3 100 62 210 131 109
69 205 126 213 126 31 0 143 -33 135 -41 -4 -4 -117 -65 -250 -134 -134 -70
-243 -129 -243 -131 0 -3 123 58 273 135 149 76 289 142 311 146 24 4 40 13
43 24 5 19 184 113 195 102 4 -3 18 -32 32 -64z m-734 -36 c0 -9 -243 -201
-255 -201 -4 0 -4 12 0 28 4 15 7 34 7 43 0 9 18 35 41 57 34 33 57 45 117 61
88 23 90 24 90 12z m-740 -101 c0 -5 -70 -10 -167 -12 -186 -3 -223 -1 -223
13 0 5 81 9 195 9 117 0 195 -4 195 -10z m-10 -210 l0 -180 -185 0 -185 0 0
180 0 180 185 0 185 0 0 -180z m488 158 c-3 -8 -26 -14 -56 -16 -42 -2 -52 0
-52 12 0 13 12 16 56 16 40 0 55 -4 52 -12z m-870 -190 l3 -148 -342 0 c-188
0 -340 2 -338 4 2 2 130 70 284 150 271 141 282 146 335 144 l55 -3 3 -147z
m627 88 l120 -64 3 -86 3 -86 -181 0 -180 0 0 150 0 150 58 0 c51 0 70 -7 177
-64z m235 -86 l0 -150 -45 0 -45 0 0 150 0 150 45 0 45 0 0 -150z m-110 70 c0
-28 -1 -29 -25 -18 -24 11 -24 12 -9 30 24 26 34 22 34 -12z m224 -166 c47
-25 86 -48 86 -50 0 -2 -43 -4 -95 -4 l-95 0 0 50 c0 28 4 50 9 50 5 0 48 -21
95 -46z m-994 -89 c0 -13 -42 -15 -342 -13 -262 2 -342 6 -346 16 -3 9 70 12
342 12 302 0 346 -2 346 -15z m410 0 c0 -13 -28 -15 -194 -15 -163 0 -195 2
-200 15 -5 13 21 15 194 15 171 0 200 -2 200 -15z m708 3 c-4 -10 -84 -14
-346 -16 -300 -2 -342 0 -342 13 0 13 44 15 346 15 272 0 345 -3 342 -12z
m-1760 -211 c2 -172 2 -177 -18 -177 -19 0 -20 6 -20 181 0 166 1 180 18 177
15 -3 17 -21 20 -181z m660 1 l2 -178 -325 0 -325 0 0 180 0 180 323 -2 322
-3 3 -177z m380 110 c2 -38 -1 -68 -5 -69 -76 -8 -93 -4 -93 18 0 7 -11 25
-25 38 -44 45 -117 28 -148 -35 -10 -20 -20 -25 -52 -25 l-40 0 -3 59 c-2 32
-1 65 2 73 5 11 39 13 183 11 l178 -3 3 -67z m660 -110 l2 -178 -325 0 -325 0
0 173 c0 96 3 177 7 180 4 4 149 6 322 5 l316 -3 3 -177z m52 2 c0 -173 -1
-180 -20 -180 -19 0 -20 7 -20 173 0 96 3 177 7 180 3 4 12 7 20 7 10 0 13
-37 13 -180z m-990 -10 c0 -29 -2 -30 -45 -30 -43 0 -45 1 -45 30 0 29 2 30
45 30 43 0 45 -1 45 -30z m280 0 c0 -29 -2 -30 -45 -30 -43 0 -45 1 -45 30 0
29 2 30 45 30 43 0 45 -1 45 -30z m-282 -107 l3 -63 -46 0 -45 0 0 58 c0 32 3
62 7 66 4 4 23 6 43 4 l35 -3 3 -62z m280 0 l3 -63 -46 0 -45 0 0 58 c0 32 3
62 7 66 4 4 23 6 43 4 l35 -3 3 -62z m-1040 -95 c-3 -7 -13 -13 -23 -13 -10 0
-20 6 -22 13 -3 7 5 12 22 12 17 0 25 -5 23 -12z m642 -3 c0 -13 -42 -15 -315
-15 -273 0 -315 2 -315 15 0 13 42 15 315 15 273 0 315 -2 315 -15z m408 3
c-4 -10 -54 -14 -195 -16 -163 -2 -192 0 -197 13 -5 13 20 15 195 15 156 0
200 -3 197 -12z m650 0 c-4 -10 -78 -14 -316 -16 -273 -2 -312 0 -312 13 0 13
40 15 316 15 248 0 315 -3 312 -12z m60 0 c-7 -20 -48 -23 -48 -4 0 11 9 16
26 16 16 0 24 -5 22 -12z m-1760 -221 c2 -182 2 -187 -18 -187 -19 0 -20 6
-20 191 0 176 1 190 18 187 15 -3 17 -21 20 -191z m657 3 l0 -185 -322 -3
-323 -2 0 190 0 190 323 -2 322 -3 0 -185z m385 120 l0 -70 -50 0 c-38 0 -50
4 -50 15 0 9 -11 27 -25 40 -46 47 -126 27 -148 -37 -5 -14 -18 -18 -52 -18
l-45 0 0 70 0 70 185 0 185 0 0 -70z m658 -122 l2 -188 -325 0 -325 0 0 190 0
190 323 -2 322 -3 3 -187z m52 2 c0 -183 -1 -190 -20 -190 -19 0 -20 7 -20
190 0 183 1 190 20 190 19 0 20 -7 20 -190z m370 -98 c184 -77 356 -149 382
-161 l47 -20 -17 -40 -17 -41 -60 0 c-59 0 -71 5 -355 151 -162 83 -305 157
-317 165 -16 10 -23 24 -23 48 0 33 7 49 19 42 3 -2 157 -67 341 -144z m-2182
96 l-3 -43 -305 -157 c-294 -152 -307 -157 -366 -158 l-61 0 -16 42 c-9 23
-16 42 -14 43 12 9 745 313 755 314 9 1 12 -11 10 -41z m822 2 c0 -29 -2 -30
-45 -30 -43 0 -45 1 -45 30 0 29 2 30 45 30 43 0 45 -1 45 -30z m280 0 c0 -29
-2 -30 -45 -30 -43 0 -45 1 -45 30 0 29 2 30 45 30 43 0 45 -1 45 -30z m-280
-115 l0 -75 -45 0 -45 0 0 75 0 75 45 0 45 0 0 -75z m278 -2 l3 -73 -46 0 -45
0 0 76 0 75 43 -3 42 -3 3 -72z m951 -47 c119 -62 250 -131 291 -152 l75 -39
-121 -3 -122 -3 -176 112 -176 111 0 44 c0 24 3 44 7 44 3 0 104 -51 222 -114z
m-2049 60 l0 -44 -167 -106 -168 -106 -119 0 c-66 0 -116 3 -112 7 12 12 540
291 554 292 8 1 12 -14 12 -43z m-27 -184 c-88 -71 -94 -73 -189 -70 l-89 3
150 96 150 97 3 -51 c3 -47 0 -54 -25 -75z m2020 28 l148 -95 -90 -3 -90 -3
-71 53 c-70 52 -70 53 -70 101 0 34 4 48 13 45 7 -2 79 -46 160 -98z m-1933
-25 c0 -68 -2 -75 -20 -75 -18 0 -20 7 -20 75 0 68 2 75 20 75 18 0 20 -7 20
-75z m640 0 l0 -75 -315 0 -315 0 0 75 0 75 315 0 315 0 0 -75z m100 55 c0
-15 -7 -20 -25 -20 -20 0 -25 -5 -25 -25 0 -18 -5 -25 -20 -25 -17 0 -20 7
-20 45 l0 45 45 0 c38 0 45 -3 45 -20z m210 0 c0 -20 -5 -21 -97 -18 -84 3
-98 6 -101 21 -3 15 7 17 97 17 95 0 101 -1 101 -20z m110 -25 c0 -38 -3 -45
-20 -45 -15 0 -20 7 -20 25 0 20 -5 25 -25 25 -18 0 -25 5 -25 20 0 17 7 20
45 20 l45 0 0 -45z m640 -30 l0 -75 -315 0 -315 0 0 75 0 75 315 0 315 0 0
-75z m50 0 c0 -68 -2 -75 -20 -75 -18 0 -20 7 -20 75 0 68 2 75 20 75 18 0 20
-7 20 -75z m-750 5 c0 -19 -7 -20 -145 -20 -138 0 -145 1 -145 20 0 19 7 20
145 20 138 0 145 -1 145 -20z m-1063 -77 c-3 -2 -26 -3 -52 -1 l-46 3 48 36
48 36 3 -35 c2 -18 1 -36 -1 -39z m1886 41 c26 -20 47 -38 47 -40 0 -2 -25 -4
-55 -4 l-55 0 0 40 c0 22 4 40 8 40 5 0 30 -16 55 -36z m-763 -24 c0 -19 -7
-20 -205 -20 -198 0 -205 1 -205 20 0 19 7 20 205 20 198 0 205 -1 205 -20z
m1446 -55 c-16 -44 -125 -215 -188 -297 -67 -86 -261 -288 -277 -288 -4 0 -23
-14 -42 -31 -56 -51 -207 -148 -309 -199 -675 -338 -1443 -244 -2030 248 -150
126 -297 303 -398 478 -29 50 -52 94 -52 98 0 3 743 6 1651 6 1467 0 1650 -2
1645 -15z"/>
<path d="M3122 4110 c0 -19 2 -27 5 -17 2 9 2 25 0 35 -3 9 -5 1 -5 -18z"/>
<path d="M3113 4035 c0 -22 2 -30 4 -17 2 12 2 30 0 40 -3 9 -5 -1 -4 -23z"/>
<path d="M3286 3984 c-10 -31 -16 -58 -14 -60 3 -2 12 21 22 52 10 31 16 58
14 60 -3 2 -12 -21 -22 -52z"/>
<path d="M2842 4000 c0 -19 2 -27 5 -17 2 9 2 25 0 35 -3 9 -5 1 -5 -18z"/>
<path d="M2751 3994 c0 -11 3 -14 6 -6 3 7 2 16 -1 19 -3 4 -6 -2 -5 -13z"/>
<path d="M2965 4000 c-4 -6 -3 -16 3 -22 6 -6 12 -6 17 2 4 6 3 16 -3 22 -6 6
-12 6 -17 -2z"/>
<path d="M3102 3960 c0 -19 2 -27 5 -17 2 9 2 25 0 35 -3 9 -5 1 -5 -18z"/>
<path d="M3192 3970 c0 -14 2 -19 5 -12 2 6 2 18 0 25 -3 6 -5 1 -5 -13z"/>
<path d="M3361 3929 c-12 -29 -20 -54 -18 -56 2 -2 14 20 26 48 12 29 20 54
18 56 -2 2 -14 -20 -26 -48z"/>
<path d="M2762 3950 c0 -14 2 -19 5 -12 2 6 2 18 0 25 -3 6 -5 1 -5 -13z"/>
<path d="M2852 3920 c0 -19 2 -27 5 -17 2 9 2 25 0 35 -3 9 -5 1 -5 -18z"/>
<path d="M3181 3924 c0 -11 3 -14 6 -6 3 7 2 16 -1 19 -3 4 -6 -2 -5 -13z"/>
<path d="M2771 3904 c0 -11 3 -14 6 -6 3 7 2 16 -1 19 -3 4 -6 -2 -5 -13z"/>
<path d="M2691 3890 c0 -8 4 -24 9 -35 5 -13 9 -14 9 -5 0 8 -4 24 -9 35 -5
13 -9 14 -9 5z"/>
<path d="M3172 3880 c0 -14 2 -19 5 -12 2 6 2 18 0 25 -3 6 -5 1 -5 -13z"/>
<path d="M2782 3860 c0 -14 2 -19 5 -12 2 6 2 18 0 25 -3 6 -5 1 -5 -13z"/>
<path d="M3326 3845 c-9 -26 -7 -32 5 -12 6 10 9 21 6 23 -2 3 -7 -2 -11 -11z"/>
<path d="M3161 3834 c0 -11 3 -14 6 -6 3 7 2 16 -1 19 -3 4 -6 -2 -5 -13z"/>
<path d="M3231 3809 c-7 -22 -11 -43 -8 -45 2 -2 9 14 16 37 7 22 11 43 8 45
-2 2 -9 -14 -16 -37z"/>
<path d="M2791 3814 c0 -11 3 -14 6 -6 3 7 2 16 -1 19 -3 4 -6 -2 -5 -13z"/>
<path d="M3151 3794 c0 -11 3 -14 6 -6 3 7 2 16 -1 19 -3 4 -6 -2 -5 -13z"/>
<path d="M3302 3785 c-17 -37 -14 -45 4 -12 9 16 14 31 11 33 -2 2 -9 -7 -15
-21z"/>
<path d="M2640 3795 c0 -5 5 -17 10 -25 5 -8 10 -10 10 -5 0 6 -5 17 -10 25
-5 8 -10 11 -10 5z"/>
<path d="M3276 3725 c-9 -26 -7 -32 5 -12 6 10 9 21 6 23 -2 3 -7 -2 -11 -11z"/>
<path d="M2670 3725 c0 -5 5 -17 10 -25 5 -8 10 -10 10 -5 0 6 -5 17 -10 25
-5 8 -10 11 -10 5z"/>
<path d="M2640 3630 c17 -33 33 -60 35 -60 3 0 -8 27 -25 60 -17 33 -33 60
-35 60 -3 0 8 -27 25 -60z"/>
<path d="M3404 3668 c-4 -7 -14 -24 -22 -38 -14 -24 -13 -24 3 -5 20 24 37 55
31 55 -3 0 -8 -6 -12 -12z"/>
<path d="M2505 3600 c25 -33 48 -60 51 -60 3 0 -16 27 -41 60 -25 33 -48 60
-51 60 -3 0 16 -27 41 -60z"/>
<path d="M3425 3580 c-25 -33 -44 -60 -41 -60 3 0 26 27 51 60 25 33 44 60 41
60 -3 0 -26 -27 -51 -60z"/>
<path d="M2249 3452 c14 -11 38 -27 55 -37 l31 -17 -24 20 c-14 11 -38 27 -55
37 l-31 17 24 -20z"/>
<path d="M2370 3456 c0 -2 8 -10 18 -17 15 -13 16 -12 3 4 -13 16 -21 21 -21
13z"/>
<path d="M2100 3350 c8 -5 20 -10 25 -10 6 0 3 5 -5 10 -8 5 -19 10 -25 10 -5
0 -3 -5 5 -10z"/>
<path d="M2150 3330 c8 -5 20 -10 25 -10 6 0 3 5 -5 10 -8 5 -19 10 -25 10 -5
0 -3 -5 5 -10z"/>
<path d="M1908 3223 c6 -2 18 -2 25 0 6 3 1 5 -13 5 -14 0 -19 -2 -12 -5z"/>
<path d="M1958 3213 c7 -3 16 -2 19 1 4 3 -2 6 -13 5 -11 0 -14 -3 -6 -6z"/>
<path d="M1998 3203 c6 -2 18 -2 25 0 6 3 1 5 -13 5 -14 0 -19 -2 -12 -5z"/>
<path d="M1810 3139 c25 -4 59 -7 75 -7 22 0 18 3 -15 9 -25 4 -58 7 -75 7
-22 0 -18 -3 15 -9z"/>
<path d="M1938 3123 c12 -2 30 -2 40 0 9 3 -1 5 -23 4 -22 0 -30 -2 -17 -4z"/>
<path d="M1903 3033 c26 -2 68 -2 95 0 26 2 4 3 -48 3 -52 0 -74 -1 -47 -3z"/>
<path d="M1878 2943 c29 -2 74 -2 100 0 26 2 2 3 -53 3 -55 0 -76 -1 -47 -3z"/>
<path d="M2003 2863 c9 -2 25 -2 35 0 9 3 1 5 -18 5 -19 0 -27 -2 -17 -5z"/>
<path d="M1933 2853 c9 -2 25 -2 35 0 9 3 1 5 -18 5 -19 0 -27 -2 -17 -5z"/>
<path d="M1998 2773 c7 -3 16 -2 19 1 4 3 -2 6 -13 5 -11 0 -14 -3 -6 -6z"/>
<path d="M1948 2763 c6 -2 18 -2 25 0 6 3 1 5 -13 5 -14 0 -19 -2 -12 -5z"/>
<path d="M2916 4602 c-3 -5 1 -9 9 -9 8 0 15 4 15 9 0 4 -4 8 -9 8 -6 0 -12
-4 -15 -8z"/>
<path d="M3075 4570 c-3 -5 1 -10 10 -10 9 0 13 5 10 10 -3 6 -8 10 -10 10 -2
0 -7 -4 -10 -10z"/>
<path d="M3228 4573 c7 -3 16 -2 19 1 4 3 -2 6 -13 5 -11 0 -14 -3 -6 -6z"/>
<path d="M2963 4482 c-2 -102 3 -98 15 11 6 53 5 77 -2 77 -7 0 -12 -34 -13
-88z"/>
<path d="M3003 4503 c3 -5 2 -29 -3 -55 -7 -49 3 -67 14 -25 9 36 7 87 -5 87
-5 0 -8 -3 -6 -7z"/>
<path d="M3128 4483 c7 -3 16 -2 19 1 4 3 -2 6 -13 5 -11 0 -14 -3 -6 -6z"/>
<path d="M2638 4413 c7 -3 16 -2 19 1 4 3 -2 6 -13 5 -11 0 -14 -3 -6 -6z"/>
<path d="M2688 4413 c7 -3 16 -2 19 1 4 3 -2 6 -13 5 -11 0 -14 -3 -6 -6z"/>
<path d="M2688 4373 c7 -3 16 -2 19 1 4 3 -2 6 -13 5 -11 0 -14 -3 -6 -6z"/>
<path d="M3273 4373 c9 -2 23 -2 30 0 6 3 -1 5 -18 5 -16 0 -22 -2 -12 -5z"/>
<path d="M3977 3991 c3 -12 9 -21 14 -21 14 0 11 16 -5 29 -12 10 -13 8 -9 -8z"/>
<path d="M4046 3994 c-9 -24 -2 -26 12 -4 7 11 8 20 3 20 -5 0 -12 -7 -15 -16z"/>
<path d="M4098 3973 c7 -3 16 -2 19 1 4 3 -2 6 -13 5 -11 0 -14 -3 -6 -6z"/>
<path d="M4010 3940 c0 -16 5 -30 10 -30 6 0 10 14 10 30 0 17 -4 30 -10 30
-5 0 -10 -13 -10 -30z"/>
<path d="M4268 3963 c7 -3 16 -2 19 1 4 3 -2 6 -13 5 -11 0 -14 -3 -6 -6z"/>
<path d="M4078 3943 c7 -3 16 -2 19 1 4 3 -2 6 -13 5 -11 0 -14 -3 -6 -6z"/>
<path d="M4098 3913 c7 -3 16 -2 19 1 4 3 -2 6 -13 5 -11 0 -14 -3 -6 -6z"/>
<path d="M4030 3859 c0 -17 5 -40 11 -51 9 -16 8 -23 -2 -29 -9 -6 -10 -9 -2
-9 15 0 76 51 68 58 -2 3 -14 -3 -25 -13 -19 -17 -20 -17 -26 0 -4 9 -7 30 -8
46 -1 39 -16 37 -16 -2z"/>
<path d="M4096 3865 c9 -14 20 -25 25 -25 5 0 2 11 -7 25 -9 14 -20 25 -25 25
-5 0 -2 -11 7 -25z"/>
<path d="M2030 3980 c0 -6 7 -10 15 -10 8 0 15 2 15 4 0 2 -7 6 -15 10 -8 3
-15 1 -15 -4z"/>
<path d="M2208 3953 c7 -3 16 -2 19 1 4 3 -2 6 -13 5 -11 0 -14 -3 -6 -6z"/>
<path d="M2040 3940 c0 -5 7 -10 16 -10 8 0 12 5 9 10 -3 6 -10 10 -16 10 -5
0 -9 -4 -9 -10z"/>
<path d="M2025 3900 c-3 -5 3 -10 15 -10 12 0 18 5 15 10 -3 6 -10 10 -15 10
-5 0 -12 -4 -15 -10z"/>
<path d="M1648 3833 c7 -3 16 -2 19 1 4 3 -2 6 -13 5 -11 0 -14 -3 -6 -6z"/>
<path d="M1940 3785 c0 -19 2 -35 4 -35 2 0 6 16 8 35 2 19 0 35 -4 35 -4 0
-8 -16 -8 -35z"/>
<path d="M3945 3395 c-27 -13 -45 -23 -40 -24 6 0 33 11 60 24 28 13 46 23 40
24 -5 0 -32 -11 -60 -24z"/>
<path d="M3700 3370 c-9 -6 -10 -10 -3 -10 6 0 15 5 18 10 8 12 4 12 -15 0z"/>
<path d="M3860 3360 c-8 -5 -10 -10 -5 -10 6 0 17 5 25 10 8 5 11 10 5 10 -5
0 -17 -5 -25 -10z"/>
<path d="M3810 3340 c-8 -5 -10 -10 -5 -10 6 0 17 5 25 10 8 5 11 10 5 10 -5
0 -17 -5 -25 -10z"/>
<path d="M3975 3310 c-27 -10 -43 -18 -35 -18 8 0 38 8 65 18 28 10 43 18 35
18 -8 0 -37 -8 -65 -18z"/>
<path d="M3978 3213 c6 -2 18 -2 25 0 6 3 1 5 -13 5 -14 0 -19 -2 -12 -5z"/>
<path d="M3938 3203 c7 -3 16 -2 19 1 4 3 -2 6 -13 5 -11 0 -14 -3 -6 -6z"/>
<path d="M4133 3143 c9 -2 25 -2 35 0 9 3 1 5 -18 5 -19 0 -27 -2 -17 -5z"/>
<path d="M4058 3133 c12 -2 30 -2 40 0 9 3 -1 5 -23 4 -22 0 -30 -2 -17 -4z"/>
<path d="M3983 3123 c9 -2 25 -2 35 0 9 3 1 5 -18 5 -19 0 -27 -2 -17 -5z"/>
<path d="M3958 3033 c29 -2 74 -2 100 0 26 2 2 3 -53 3 -55 0 -76 -1 -47 -3z"/>
<path d="M3983 2943 c26 -2 68 -2 95 0 26 2 4 3 -48 3 -52 0 -74 -1 -47 -3z"/>
<path d="M3913 2863 c9 -2 25 -2 35 0 9 3 1 5 -18 5 -19 0 -27 -2 -17 -5z"/>
<path d="M3993 2853 c9 -2 25 -2 35 0 9 3 1 5 -18 5 -19 0 -27 -2 -17 -5z"/>
<path d="M4068 2843 c12 -2 30 -2 40 0 9 3 -1 5 -23 4 -22 0 -30 -2 -17 -4z"/>
<path d="M4000 2760 c14 -4 34 -8 45 -8 16 0 15 2 -5 8 -14 4 -34 8 -45 8 -16
0 -15 -2 5 -8z"/>
<path d="M2958 3493 c6 -2 18 -2 25 0 6 3 1 5 -13 5 -14 0 -19 -2 -12 -5z"/>
<path d="M3025 3470 c10 -11 20 -20 23 -20 3 0 -3 9 -13 20 -10 11 -20 20 -23
20 -3 0 3 -9 13 -20z"/>
<path d="M2895 3449 c-4 -6 -5 -12 -2 -15 2 -3 7 2 10 11 7 17 1 20 -8 4z"/>
<path d="M2930 3440 c-9 -17 -8 -20 10 -20 13 0 20 7 20 20 0 11 -4 20 -10 20
-5 0 -14 -9 -20 -20z"/>
<path d="M2990 3440 c0 -13 7 -20 20 -20 13 0 17 5 14 14 -9 24 -34 28 -34 6z"/>
<path d="M2930 3380 c6 -11 15 -20 20 -20 6 0 10 9 10 20 0 13 -7 20 -20 20
-18 0 -19 -3 -10 -20z"/>
<path d="M2990 3380 c0 -11 4 -20 10 -20 5 0 14 9 20 20 9 17 8 20 -10 20 -13
0 -20 -7 -20 -20z"/>
<path d="M2890 3381 c0 -6 4 -13 10 -16 6 -3 7 1 4 9 -7 18 -14 21 -14 7z"/>
<path d="M3024 3348 l-19 -23 23 19 c21 18 27 26 19 26 -2 0 -12 -10 -23 -22z"/>
<path d="M2963 3323 c9 -2 23 -2 30 0 6 3 -1 5 -18 5 -16 0 -22 -2 -12 -5z"/>
<path d="M2222 3058 c-7 -7 -12 -44 -12 -95 0 -49 -4 -83 -10 -83 -5 0 -10 -4
-10 -10 0 -6 28 -10 65 -10 37 0 65 4 65 10 0 6 -4 10 -10 10 -6 0 -10 33 -10
79 0 59 -4 84 -16 95 -18 19 -45 21 -62 4z"/>
<path d="M2426 3048 c-8 -14 -16 -57 -18 -105 l-3 -83 55 0 55 0 -3 83 c-4 88
-20 127 -52 127 -11 0 -26 -10 -34 -22z"/>
<path d="M2636 3054 c-12 -11 -16 -36 -16 -95 0 -46 -4 -79 -10 -79 -5 0 -10
-4 -10 -10 0 -6 28 -10 65 -10 37 0 65 4 65 10 0 6 -4 10 -10 10 -6 0 -10 34
-10 83 0 51 -5 88 -12 95 -17 17 -44 15 -62 -4z"/>
<path d="M3252 3058 c-7 -7 -12 -44 -12 -95 0 -49 -4 -83 -10 -83 -5 0 -10 -4
-10 -10 0 -6 28 -10 65 -10 37 0 65 4 65 10 0 6 -4 10 -10 10 -6 0 -10 33 -10
79 0 59 -4 84 -16 95 -18 19 -45 21 -62 4z"/>
<path d="M3456 3054 c-12 -11 -16 -35 -16 -89 0 -40 -3 -80 -6 -89 -5 -14 3
-16 55 -16 34 0 61 4 61 10 0 6 -4 10 -10 10 -6 0 -10 34 -10 83 0 51 -5 88
-12 95 -17 17 -44 15 -62 -4z"/>
<path d="M3668 3059 c-15 -8 -18 -25 -18 -94 0 -50 -4 -85 -10 -85 -5 0 -10
-4 -10 -10 0 -6 28 -10 65 -10 37 0 65 4 65 10 0 6 -4 10 -10 10 -6 0 -10 35
-10 85 0 73 -3 86 -19 95 -24 12 -31 12 -53 -1z"/>
<path d="M2222 2648 c-7 -7 -12 -44 -12 -95 0 -49 -4 -83 -10 -83 -5 0 -10 -4
-10 -10 0 -6 26 -10 59 -10 33 0 63 5 66 10 3 6 1 10 -4 10 -7 0 -11 31 -11
83 0 87 -8 107 -45 107 -12 0 -26 -5 -33 -12z"/>
<path d="M2421 2637 c-5 -12 -10 -59 -12 -105 l-4 -82 55 0 55 0 -4 82 c-5
109 -12 128 -51 128 -22 0 -33 -6 -39 -23z"/>
<path d="M2632 2648 c-7 -7 -12 -44 -12 -95 0 -52 -4 -83 -11 -83 -5 0 -7 -4
-4 -10 3 -5 33 -10 66 -10 33 0 59 4 59 10 0 6 -4 10 -10 10 -6 0 -10 34 -10
83 0 87 -8 107 -45 107 -12 0 -26 -5 -33 -12z"/>
<path d="M3252 2648 c-7 -7 -12 -43 -12 -89 0 -43 -4 -81 -10 -84 -5 -3 -10
-10 -10 -16 0 -11 118 -10 126 2 3 5 0 9 -5 9 -7 0 -11 29 -11 76 0 41 -5 84
-10 95 -12 21 -50 25 -68 7z"/>
<path d="M3451 2643 c-5 -10 -10 -57 -12 -106 l-4 -87 58 0 c53 0 71 10 47 25
-5 3 -10 41 -10 84 0 46 -5 82 -12 89 -18 18 -56 15 -67 -5z"/>
<path d="M3662 2648 c-7 -7 -12 -44 -12 -95 0 -52 -4 -83 -11 -83 -5 0 -7 -4
-4 -10 3 -5 33 -10 66 -10 33 0 59 4 59 10 0 6 -4 10 -10 10 -6 0 -10 34 -10
83 0 87 -8 107 -45 107 -12 0 -26 -5 -33 -12z"/>
<path d="M1530 2141 c0 -5 9 -7 20 -4 11 3 20 7 20 9 0 2 -9 4 -20 4 -11 0
-20 -4 -20 -9z"/>
<path d="M1738 2143 c7 -3 16 -2 19 1 4 3 -2 6 -13 5 -11 0 -14 -3 -6 -6z"/>
<path d="M1888 2143 c6 -2 18 -2 25 0 6 3 1 5 -13 5 -14 0 -19 -2 -12 -5z"/>
<path d="M2128 2143 c12 -2 30 -2 40 0 9 3 -1 5 -23 4 -22 0 -30 -2 -17 -4z"/>
<path d="M2308 2143 c12 -2 30 -2 40 0 9 3 -1 5 -23 4 -22 0 -30 -2 -17 -4z"/>
<path d="M2393 2143 c9 -2 23 -2 30 0 6 3 -1 5 -18 5 -16 0 -22 -2 -12 -5z"/>
<path d="M2478 2143 c6 -2 18 -2 25 0 6 3 1 5 -13 5 -14 0 -19 -2 -12 -5z"/>
<path d="M1448 2133 c6 -2 18 -2 25 0 6 3 1 5 -13 5 -14 0 -19 -2 -12 -5z"/>
<path d="M3958 2133 c6 -2 18 -2 25 0 6 3 1 5 -13 5 -14 0 -19 -2 -12 -5z"/>
<path d="M4068 2133 c7 -3 16 -2 19 1 4 3 -2 6 -13 5 -11 0 -14 -3 -6 -6z"/>
<path d="M4158 2133 c12 -2 30 -2 40 0 9 3 -1 5 -23 4 -22 0 -30 -2 -17 -4z"/>
<path d="M4238 2133 c12 -2 30 -2 40 0 9 3 -1 5 -23 4 -22 0 -30 -2 -17 -4z"/>
<path d="M4348 2133 c23 -2 59 -2 80 0 20 2 1 4 -43 4 -44 0 -61 -2 -37 -4z"/>
<path d="M3248 2123 c7 -3 16 -2 19 1 4 3 -2 6 -13 5 -11 0 -14 -3 -6 -6z"/>
<path d="M3563 2123 c9 -2 23 -2 30 0 6 3 -1 5 -18 5 -16 0 -22 -2 -12 -5z"/>
<path d="M2548 2113 c6 -2 18 -2 25 0 6 3 1 5 -13 5 -14 0 -19 -2 -12 -5z"/>
<path d="M2848 2113 c12 -2 32 -2 45 0 12 2 2 4 -23 4 -25 0 -35 -2 -22 -4z"/>
<path d="M1948 2103 c18 -2 45 -2 60 0 15 2 0 4 -33 4 -33 0 -45 -2 -27 -4z"/>
<path d="M2093 2103 c15 -2 39 -2 55 0 15 2 2 4 -28 4 -30 0 -43 -2 -27 -4z"/>
<path d="M2203 2103 c9 -2 23 -2 30 0 6 3 -1 5 -18 5 -16 0 -22 -2 -12 -5z"/>
<path d="M2298 2103 c7 -3 16 -2 19 1 4 3 -2 6 -13 5 -11 0 -14 -3 -6 -6z"/>
<path d="M3838 2093 c12 -2 30 -2 40 0 9 3 -1 5 -23 4 -22 0 -30 -2 -17 -4z"/>
<path d="M3978 2093 c29 -2 74 -2 100 0 26 2 2 3 -53 3 -55 0 -76 -1 -47 -3z"/>
<path d="M2543 2073 c15 -2 37 -2 50 0 12 2 0 4 -28 4 -27 0 -38 -2 -22 -4z"/>
<path d="M2808 2073 c7 -3 16 -2 19 1 4 3 -2 6 -13 5 -11 0 -14 -3 -6 -6z"/>
<path d="M2902 2073 c37 -2 100 -2 140 0 40 1 10 3 -67 3 -77 0 -110 -1 -73
-3z"/>
<path d="M3163 2073 c26 -2 67 -2 90 0 23 2 2 3 -48 3 -49 0 -68 -1 -42 -3z"/>
<path d="M3353 2073 c9 -2 25 -2 35 0 9 3 1 5 -18 5 -19 0 -27 -2 -17 -5z"/>
<path d="M1930 2060 c0 -5 5 -10 10 -10 6 0 10 5 10 10 0 6 -4 10 -10 10 -5 0
-10 -4 -10 -10z"/>
<path d="M1823 2053 c15 -2 37 -2 50 0 12 2 0 4 -28 4 -27 0 -38 -2 -22 -4z"/>
<path d="M2008 2053 c6 -2 18 -2 25 0 6 3 1 5 -13 5 -14 0 -19 -2 -12 -5z"/>
<path d="M3683 2053 c9 -2 23 -2 30 0 6 3 -1 5 -18 5 -16 0 -22 -2 -12 -5z"/>
<path d="M3823 2053 c26 -2 68 -2 95 0 26 2 4 3 -48 3 -52 0 -74 -1 -47 -3z"/>
<path d="M4078 2053 c7 -3 16 -2 19 1 4 3 -2 6 -13 5 -11 0 -14 -3 -6 -6z"/>
<path d="M4338 2053 c6 -2 18 -2 25 0 6 3 1 5 -13 5 -14 0 -19 -2 -12 -5z"/>
<path d="M3388 2033 c17 -2 47 -2 65 0 17 2 3 4 -33 4 -36 0 -50 -2 -32 -4z"/>
<path d="M2020 2020 c0 -5 7 -7 15 -4 8 4 15 8 15 10 0 2 -7 4 -15 4 -8 0 -15
-4 -15 -10z"/>
<path d="M2228 2023 c7 -3 16 -2 19 1 4 3 -2 6 -13 5 -11 0 -14 -3 -6 -6z"/>
<path d="M2378 2023 c6 -2 18 -2 25 0 6 3 1 5 -13 5 -14 0 -19 -2 -12 -5z"/>
<path d="M2723 2023 c15 -2 39 -2 55 0 15 2 2 4 -28 4 -30 0 -43 -2 -27 -4z"/>
<path d="M2963 2023 c15 -2 39 -2 55 0 15 2 2 4 -28 4 -30 0 -43 -2 -27 -4z"/>
<path d="M3078 2023 c12 -2 30 -2 40 0 9 3 -1 5 -23 4 -22 0 -30 -2 -17 -4z"/>
<path d="M3213 2023 c9 -2 23 -2 30 0 6 3 -1 5 -18 5 -16 0 -22 -2 -12 -5z"/>
<path d="M1938 2013 c7 -3 16 -2 19 1 4 3 -2 6 -13 5 -11 0 -14 -3 -6 -6z"/>
<path d="M3793 2013 c26 -2 67 -2 90 0 23 2 2 3 -48 3 -49 0 -68 -1 -42 -3z"/>
<path d="M4408 1993 c7 -3 16 -2 19 1 4 3 -2 6 -13 5 -11 0 -14 -3 -6 -6z"/>
<path d="M1668 1983 c12 -2 32 -2 45 0 12 2 2 4 -23 4 -25 0 -35 -2 -22 -4z"/>
<path d="M1928 1983 c12 -2 32 -2 45 0 12 2 2 4 -23 4 -25 0 -35 -2 -22 -4z"/>
<path d="M2043 1983 c9 -2 23 -2 30 0 6 3 -1 5 -18 5 -16 0 -22 -2 -12 -5z"/>
<path d="M2163 1983 c9 -2 23 -2 30 0 6 3 -1 5 -18 5 -16 0 -22 -2 -12 -5z"/>
<path d="M3373 1983 c15 -2 37 -2 50 0 12 2 0 4 -28 4 -27 0 -38 -2 -22 -4z"/>
<path d="M3638 1983 c12 -2 30 -2 40 0 9 3 -1 5 -23 4 -22 0 -30 -2 -17 -4z"/>
<path d="M3743 1983 c9 -2 23 -2 30 0 6 3 -1 5 -18 5 -16 0 -22 -2 -12 -5z"/>
<path d="M3863 1983 c9 -2 23 -2 30 0 6 3 -1 5 -18 5 -16 0 -22 -2 -12 -5z"/>
<path d="M2308 1973 c7 -3 16 -2 19 1 4 3 -2 6 -13 5 -11 0 -14 -3 -6 -6z"/>
<path d="M2383 1973 c9 -2 25 -2 35 0 9 3 1 5 -18 5 -19 0 -27 -2 -17 -5z"/>
<path d="M2493 1973 c9 -2 23 -2 30 0 6 3 -1 5 -18 5 -16 0 -22 -2 -12 -5z"/>
<path d="M2593 1973 c15 -2 39 -2 55 0 15 2 2 4 -28 4 -30 0 -43 -2 -27 -4z"/>
<path d="M2708 1973 c12 -2 32 -2 45 0 12 2 2 4 -23 4 -25 0 -35 -2 -22 -4z"/>
<path d="M2823 1973 c9 -2 25 -2 35 0 9 3 1 5 -18 5 -19 0 -27 -2 -17 -5z"/>
<path d="M3833 1943 c48 -2 126 -2 175 0 48 1 8 3 -88 3 -96 0 -136 -2 -87 -3z"/>
<path d="M1918 1933 c46 -2 118 -2 160 0 42 1 5 3 -83 3 -88 0 -123 -2 -77 -3z"/>
<path d="M2208 1933 c7 -3 16 -2 19 1 4 3 -2 6 -13 5 -11 0 -14 -3 -6 -6z"/>
<path d="M2283 1933 c4 -3 24 -8 45 -9 28 -2 32 -1 17 6 -24 10 -71 13 -62 3z"/>
<path d="M2420 1929 c0 -5 5 -7 10 -4 6 3 10 8 10 11 0 2 -4 4 -10 4 -5 0 -10
-5 -10 -11z"/>
<path d="M2898 1933 c7 -3 16 -2 19 1 4 3 -2 6 -13 5 -11 0 -14 -3 -6 -6z"/>
<path d="M2948 1933 c7 -3 16 -2 19 1 4 3 -2 6 -13 5 -11 0 -14 -3 -6 -6z"/>
<path d="M3188 1933 c12 -2 32 -2 45 0 12 2 2 4 -23 4 -25 0 -35 -2 -22 -4z"/>
<path d="M3308 1933 c12 -2 30 -2 40 0 9 3 -1 5 -23 4 -22 0 -30 -2 -17 -4z"/>
<path d="M3993 1913 c9 -2 23 -2 30 0 6 3 -1 5 -18 5 -16 0 -22 -2 -12 -5z"/>
<path d="M1593 1893 c9 -2 23 -2 30 0 6 3 -1 5 -18 5 -16 0 -22 -2 -12 -5z"/>
<path d="M1858 1873 c7 -3 16 -2 19 1 4 3 -2 6 -13 5 -11 0 -14 -3 -6 -6z"/>
<path d="M3148 1856 c29 -14 32 -19 32 -60 0 -48 -6 -55 -54 -67 l-31 -7 32
-1 c88 -3 83 -139 -5 -143 l-37 -1 34 -4 c47 -6 88 13 100 48 13 38 -1 76 -33
91 l-25 11 29 27 c17 16 30 37 30 48 0 30 -31 60 -70 67 l-35 6 33 -15z"/>
<path d="M2550 1839 c-44 -17 -44 -17 -15 -20 l30 -4 0 -115 0 -115 -30 -6
c-17 -4 7 -6 55 -6 47 0 70 2 53 4 -18 2 -34 5 -34 6 -1 1 -5 63 -8 137 l-6
136 -45 -17z"/>
<path d="M2804 1848 c-48 -23 -59 -104 -19 -143 29 -30 64 -32 98 -5 14 11 28
20 30 20 9 0 -5 -73 -20 -103 -27 -53 -100 -64 -87 -12 5 21 3 25 -15 25 -32
0 -28 -43 4 -58 34 -15 40 -15 81 4 42 20 74 83 74 148 0 102 -70 161 -146
124z m90 -20 c35 -50 9 -128 -43 -128 -32 0 -45 13 -55 52 -7 29 8 78 27 90
23 15 56 8 71 -14z"/>
<path d="M3077 1848 c-25 -19 -27 -61 -3 -66 16 -3 18 0 13 27 -5 23 -2 33 11
40 9 6 12 11 6 11 -5 0 -18 -6 -27 -12z"/>
<path d="M3415 1851 c-6 -5 -26 -14 -45 -19 l-35 -10 31 -1 c40 -1 44 -12 44
-114 0 -111 -5 -125 -44 -130 -17 -2 7 -4 54 -4 48 0 72 2 55 6 l-30 6 -3 138
c-2 131 -6 148 -27 128z"/>
<path d="M4178 1853 c7 -3 16 -2 19 1 4 3 -2 6 -13 5 -11 0 -14 -3 -6 -6z"/>
<path d="M3638 1843 c7 -3 16 -2 19 1 4 3 -2 6 -13 5 -11 0 -14 -3 -6 -6z"/>
<path d="M3713 1843 c15 -2 39 -2 55 0 15 2 2 4 -28 4 -30 0 -43 -2 -27 -4z"/>
<path d="M3868 1843 c12 -2 32 -2 45 0 12 2 2 4 -23 4 -25 0 -35 -2 -22 -4z"/>
<path d="M3963 1843 c9 -2 23 -2 30 0 6 3 -1 5 -18 5 -16 0 -22 -2 -12 -5z"/>
<path d="M1878 1833 c12 -2 32 -2 45 0 12 2 2 4 -23 4 -25 0 -35 -2 -22 -4z"/>
<path d="M1958 1833 c7 -3 16 -2 19 1 4 3 -2 6 -13 5 -11 0 -14 -3 -6 -6z"/>
<path d="M2013 1833 c9 -2 23 -2 30 0 6 3 -1 5 -18 5 -16 0 -22 -2 -12 -5z"/>
<path d="M2118 1833 c6 -2 18 -2 25 0 6 3 1 5 -13 5 -14 0 -19 -2 -12 -5z"/>
<path d="M3778 1793 c34 -2 90 -2 125 0 34 2 6 3 -63 3 -69 0 -97 -1 -62 -3z"/>
<path d="M1848 1783 c12 -2 32 -2 45 0 12 2 2 4 -23 4 -25 0 -35 -2 -22 -4z"/>
<path d="M2108 1783 c12 -2 30 -2 40 0 9 3 -1 5 -23 4 -22 0 -30 -2 -17 -4z"/>
<path d="M2218 1783 c6 -2 18 -2 25 0 6 3 1 5 -13 5 -14 0 -19 -2 -12 -5z"/>
<path d="M2333 1783 c9 -2 23 -2 30 0 6 3 -1 5 -18 5 -16 0 -22 -2 -12 -5z"/>
<path d="M4268 1773 c7 -3 16 -2 19 1 4 3 -2 6 -13 5 -11 0 -14 -3 -6 -6z"/>
<path d="M2053 1753 c48 -2 125 -2 170 0 45 1 6 3 -88 3 -93 0 -130 -2 -82 -3z"/>
<path d="M2338 1753 c6 -2 18 -2 25 0 6 3 1 5 -13 5 -14 0 -19 -2 -12 -5z"/>
<path d="M3653 1743 c9 -2 23 -2 30 0 6 3 -1 5 -18 5 -16 0 -22 -2 -12 -5z"/>
<path d="M3803 1743 c26 -2 67 -2 90 0 23 2 2 3 -48 3 -49 0 -68 -1 -42 -3z"/>
<path d="M4048 1743 c7 -3 16 -2 19 1 4 3 -2 6 -13 5 -11 0 -14 -3 -6 -6z"/>
<path d="M1883 1703 c15 -2 37 -2 50 0 12 2 0 4 -28 4 -27 0 -38 -2 -22 -4z"/>
<path d="M2008 1703 c12 -2 30 -2 40 0 9 3 -1 5 -23 4 -22 0 -30 -2 -17 -4z"/>
<path d="M2113 1703 c9 -2 23 -2 30 0 6 3 -1 5 -18 5 -16 0 -22 -2 -12 -5z"/>
<path d="M3638 1703 c7 -3 16 -2 19 1 4 3 -2 6 -13 5 -11 0 -14 -3 -6 -6z"/>
<path d="M3713 1703 c9 -2 23 -2 30 0 6 3 -1 5 -18 5 -16 0 -22 -2 -12 -5z"/>
<path d="M3838 1703 c7 -3 16 -2 19 1 4 3 -2 6 -13 5 -11 0 -14 -3 -6 -6z"/>
<path d="M4098 1693 c7 -3 16 -2 19 1 4 3 -2 6 -13 5 -11 0 -14 -3 -6 -6z"/>
<path d="M1968 1653 c29 -2 74 -2 100 0 26 2 2 3 -53 3 -55 0 -76 -1 -47 -3z"/>
<path d="M2153 1653 c15 -2 39 -2 55 0 15 2 2 4 -28 4 -30 0 -43 -2 -27 -4z"/>
<path d="M3045 1650 c-9 -15 5 -58 22 -65 13 -4 14 -3 3 10 -11 13 -10 18 5
29 10 7 15 18 11 24 -9 14 -33 16 -41 2z"/>
<path d="M3858 1653 c12 -2 32 -2 45 0 12 2 2 4 -23 4 -25 0 -35 -2 -22 -4z"/>
<path d="M3733 1603 c53 -2 141 -2 195 0 53 1 9 3 -98 3 -107 0 -151 -2 -97
-3z"/>
<path d="M3753 1563 c9 -2 25 -2 35 0 9 3 1 5 -18 5 -19 0 -27 -2 -17 -5z"/>
<path d="M3958 1563 c7 -3 16 -2 19 1 4 3 -2 6 -13 5 -11 0 -14 -3 -6 -6z"/>
<path d="M2065 1550 c-3 -5 -1 -10 4 -10 6 0 11 5 11 10 0 6 -2 10 -4 10 -3 0
-8 -4 -11 -10z"/>
<path d="M1978 1543 c6 -2 18 -2 25 0 6 3 1 5 -13 5 -14 0 -19 -2 -12 -5z"/>
<path d="M2128 1543 c7 -3 16 -2 19 1 4 3 -2 6 -13 5 -11 0 -14 -3 -6 -6z"/>
<path d="M1968 1503 c12 -2 30 -2 40 0 9 3 -1 5 -23 4 -22 0 -30 -2 -17 -4z"/>
<path d="M3538 1493 c7 -3 16 -2 19 1 4 3 -2 6 -13 5 -11 0 -14 -3 -6 -6z"/>
<path d="M2658 1483 c6 -2 18 -2 25 0 6 3 1 5 -13 5 -14 0 -19 -2 -12 -5z"/>
<path d="M2738 1483 c12 -2 30 -2 40 0 9 3 -1 5 -23 4 -22 0 -30 -2 -17 -4z"/>
<path d="M2863 1483 c26 -2 68 -2 95 0 26 2 4 3 -48 3 -52 0 -74 -1 -47 -3z"/>
<path d="M2278 1473 c18 -2 45 -2 60 0 15 2 0 4 -33 4 -33 0 -45 -2 -27 -4z"/>
<path d="M2823 1423 c26 -2 67 -2 90 0 23 2 2 3 -48 3 -49 0 -68 -1 -42 -3z"/>
<path d="M3018 1423 c29 -2 74 -2 100 0 26 2 2 3 -53 3 -55 0 -76 -1 -47 -3z"/>
<path d="M3238 1423 c7 -3 16 -2 19 1 4 3 -2 6 -13 5 -11 0 -14 -3 -6 -6z"/>
<path d="M3303 1423 c9 -2 23 -2 30 0 6 3 -1 5 -18 5 -16 0 -22 -2 -12 -5z"/>
<path d="M2113 1413 c15 -2 39 -2 55 0 15 2 2 4 -28 4 -30 0 -43 -2 -27 -4z"/>
<path d="M2657 1363 c18 -2 50 -2 70 0 21 2 7 4 -32 4 -38 0 -55 -2 -38 -4z"/>
<path d="M2863 1363 c15 -2 39 -2 55 0 15 2 2 4 -28 4 -30 0 -43 -2 -27 -4z"/>
<path d="M2278 1353 c7 -3 16 -2 19 1 4 3 -2 6 -13 5 -11 0 -14 -3 -6 -6z"/>
<path d="M3128 1303 c12 -2 32 -2 45 0 12 2 2 4 -23 4 -25 0 -35 -2 -22 -4z"/>
<path d="M3333 1303 c31 -2 83 -2 115 0 31 2 5 3 -58 3 -63 0 -89 -1 -57 -3z"/>
<path d="M2483 1293 c9 -2 23 -2 30 0 6 3 -1 5 -18 5 -16 0 -22 -2 -12 -5z"/>
<path d="M2618 1293 c18 -2 45 -2 60 0 15 2 0 4 -33 4 -33 0 -45 -2 -27 -4z"/>
<path d="M2882 1293 c37 -2 100 -2 140 0 40 1 10 3 -67 3 -77 0 -110 -1 -73
-3z"/>
<path d="M2810 1246 c0 -2 7 -7 16 -10 8 -3 12 -2 9 4 -6 10 -25 14 -25 6z"/>
<path d="M2883 1243 c9 -2 23 -2 30 0 6 3 -1 5 -18 5 -16 0 -22 -2 -12 -5z"/>
<path d="M3038 1243 c23 -2 59 -2 80 0 20 2 1 4 -43 4 -44 0 -61 -2 -37 -4z"/>
<path d="M3278 1243 c7 -3 16 -2 19 1 4 3 -2 6 -13 5 -11 0 -14 -3 -6 -6z"/>
<path d="M4806 4728 c6 -38 -48 -222 -75 -252 -9 -10 -33 -32 -54 -48 l-38
-31 -25 23 c-42 40 -26 7 26 -55 57 -67 79 -82 53 -36 l-18 31 45 40 c51 44
79 55 198 72 67 10 87 10 103 -1 35 -21 31 -6 -13 47 -45 56 -64 67 -46 26 10
-22 10 -28 -5 -38 -17 -13 -155 -41 -163 -33 -5 5 42 155 55 177 8 12 12 12
29 -3 38 -35 32 -15 -14 44 -59 74 -64 78 -58 37z"/>
<path d="M1096 4673 c-47 -60 -61 -90 -26 -58 34 30 46 6 60 -116 6 -61 10
-112 8 -115 -5 -4 -132 99 -143 115 -3 6 -1 20 5 32 22 40 4 27 -48 -38 -52
-62 -66 -97 -22 -53 12 12 26 18 33 13 32 -18 247 -198 247 -206 0 -4 -5 -17
-11 -29 -22 -42 0 -25 50 38 29 36 51 68 48 70 -2 2 -10 -2 -17 -11 -19 -22
-41 -18 -81 15 -28 23 -38 39 -42 72 -3 23 -4 45 -2 48 6 10 186 -7 198 -19 8
-8 6 -16 -6 -29 -9 -10 -14 -21 -11 -25 4 -3 31 24 60 61 54 68 71 100 34 67
-18 -16 -32 -17 -147 -10 -70 4 -131 9 -134 11 -13 8 -21 159 -9 188 17 47 5
41 -44 -21z"/>
<path d="M842 4338 c-16 -21 -52 -96 -52 -109 0 -7 9 -3 20 9 12 12 28 22 37
22 26 0 206 -98 231 -126 55 -62 1 -184 -81 -184 -34 0 -256 115 -264 136 -3
8 0 21 7 29 7 9 10 18 6 22 -8 9 -9 8 -50 -74 -36 -73 -39 -91 -7 -52 l17 22
129 -67 c104 -55 135 -67 159 -62 60 12 125 102 126 173 0 46 -38 85 -138 139
-110 59 -133 80 -126 111 7 26 2 30 -14 11z"/>
<path d="M5172 4205 c7 -16 8 -29 2 -34 -5 -5 -74 -40 -153 -77 l-144 -67 -18
21 c-30 38 -29 24 3 -45 39 -85 47 -94 45 -52 -2 31 2 36 44 56 40 19 51 21
84 11 20 -7 39 -17 42 -23 5 -13 -70 -147 -93 -166 -16 -13 -25 -6 -37 26 -3
6 -7 8 -9 5 -3 -3 12 -41 33 -85 23 -47 38 -68 35 -52 -2 20 14 58 61 140 35
61 66 113 67 115 8 8 144 -52 166 -73 15 -14 29 -25 32 -25 4 0 -8 31 -25 70
-31 69 -53 93 -41 46 3 -13 1 -27 -6 -31 -12 -7 -230 63 -230 75 0 4 39 24 86
45 83 37 87 38 100 20 8 -10 14 -23 14 -29 0 -5 3 -6 6 -3 9 8 -56 157 -67
157 -5 0 -3 -11 3 -25z"/>
<path d="M605 3843 c-29 -104 -29 -101 -8 -75 11 13 25 21 33 17 16 -6 123
-195 116 -203 -6 -5 -158 39 -173 51 -8 6 -10 20 -6 36 3 14 3 23 -1 20 -12
-11 -54 -159 -45 -159 5 0 9 6 9 14 0 7 7 19 14 26 12 9 32 6 98 -13 46 -14
116 -35 156 -47 69 -20 73 -23 72 -48 -4 -52 2 -46 26 28 27 85 30 118 8 78
-17 -32 -21 -33 -76 -16 -38 11 -88 65 -88 93 0 11 153 65 184 65 15 0 17 -5
13 -30 -12 -58 9 -29 27 38 31 114 31 110 5 80 -18 -21 -53 -37 -134 -63 -60
-19 -115 -35 -121 -35 -16 0 -87 157 -81 180 3 11 1 20 -3 20 -5 0 -16 -26
-25 -57z"/>
<path d="M5176 3715 c-83 -29 -136 -96 -136 -171 0 -140 158 -220 292 -147
143 78 127 273 -26 318 -60 18 -80 18 -130 0z m207 -74 c18 -18 30 -42 34 -68
8 -59 -36 -106 -124 -133 -121 -37 -196 -22 -228 46 -31 66 5 131 91 165 96
36 185 33 227 -10z"/>
<path d="M490 3401 c0 -15 -3 -50 -6 -77 l-6 -49 22 34 21 34 91 -7 c50 -3
106 -6 125 -6 18 0 33 -4 33 -9 0 -6 -70 -51 -155 -102 l-155 -91 1 -57 c1
-31 4 -46 6 -34 9 45 23 48 176 35 148 -13 177 -24 177 -65 0 -43 13 -5 19 58
7 69 2 82 -18 39 l-12 -27 -112 7 c-207 13 -206 6 -6 125 96 57 176 106 178
108 12 9 -19 15 -164 28 -86 9 -166 20 -176 26 -11 5 -19 20 -19 34 0 14 -4
25 -10 25 -5 0 -10 -13 -10 -29z"/>
<path d="M5471 3320 c-2 -3 -4 -15 -5 -27 -2 -13 -6 -26 -10 -30 -8 -9 -152
-21 -263 -22 l-72 -1 -10 33 c-9 31 -9 30 -10 -18 0 -56 16 -150 18 -103 1 32
12 36 106 40 l70 3 3 -36 c4 -53 -21 -78 -98 -96 -77 -17 -90 -26 -90 -64 0
-33 32 -59 70 -58 22 1 21 2 -8 10 -50 15 -38 40 28 62 62 21 90 42 90 68 0
36 17 26 28 -17 10 -36 19 -48 47 -61 48 -23 84 -10 108 40 17 33 18 49 9 160
-5 67 -10 120 -11 117z m-17 -116 c12 -5 16 -20 16 -63 0 -31 -4 -62 -8 -69
-11 -17 -62 -30 -92 -22 -31 7 -60 61 -60 112 l0 37 63 4 c34 2 63 4 64 5 1 1
8 -1 17 -4z"/>
<path d="M572 2919 c-24 -12 -55 -37 -70 -57 -23 -30 -27 -45 -27 -101 0 -78
24 -120 85 -151 84 -43 172 -34 237 23 58 51 78 126 52 194 -36 97 -174 142
-277 92z m220 -55 c31 -16 58 -61 58 -96 0 -37 -34 -83 -76 -103 -55 -26 -163
-32 -217 -11 -76 29 -100 107 -50 166 30 36 57 49 128 60 59 9 119 3 157 -16z"/>
<path d="M5092 2703 c-12 -86 -20 -159 -17 -161 9 -9 125 -29 125 -21 0 4 -9
11 -20 14 -11 4 -34 18 -50 32 -25 20 -30 32 -30 68 0 58 10 103 24 108 14 6
149 -13 159 -22 13 -13 -13 -68 -39 -80 -14 -6 -29 -9 -34 -6 -5 3 -11 1 -14
-4 -6 -9 152 -36 161 -28 3 3 -6 11 -19 18 -31 16 -38 28 -38 67 l0 33 58 -7
c96 -11 103 -17 96 -66 -14 -94 -44 -128 -110 -128 -13 0 -24 -4 -24 -10 0 -5
15 -10 34 -10 18 0 47 -3 63 -6 l29 -6 18 134 c10 73 20 147 22 163 l4 30 -15
-32 c-8 -18 -18 -33 -23 -33 -41 -1 -307 47 -317 57 -7 7 -11 22 -8 33 3 11 1
20 -4 20 -5 0 -19 -71 -31 -157z"/>
<path d="M853 2578 c3 -12 1 -30 -5 -41 -15 -29 -169 -222 -177 -222 -24 0
-156 84 -175 112 -13 18 -25 31 -28 28 -8 -8 45 -175 55 -175 5 0 6 11 3 24
-4 15 0 28 9 36 11 9 37 0 130 -47 63 -32 115 -61 115 -65 0 -9 -161 -58 -189
-58 -14 0 -25 10 -32 28 -6 15 -13 22 -16 15 -6 -17 48 -184 58 -178 4 3 4 17
-1 30 -13 35 5 44 193 102 153 46 159 47 173 29 7 -10 15 -24 17 -30 2 -6 7
-9 10 -6 8 7 -46 180 -56 180 -5 0 -6 -13 -2 -28 7 -35 -5 -47 -67 -63 -41
-11 -51 -10 -88 6 -22 10 -43 22 -46 27 -7 11 126 178 142 178 8 0 16 -11 20
-25 3 -14 11 -25 16 -25 6 0 8 8 5 18 -32 112 -53 172 -60 172 -5 0 -7 -10 -4
-22z"/>
<path d="M5033 2405 c-23 -69 -21 -78 6 -44 19 24 41 21 80 -11 l23 -20 -23
-67 c-22 -60 -27 -68 -58 -76 -19 -4 -45 -6 -59 -2 -21 5 -24 10 -18 38 9 46
-8 22 -33 -46 -24 -67 -27 -90 -6 -63 13 18 35 21 212 29 109 5 200 11 203 14
3 2 -20 26 -50 51 -168 144 -235 209 -238 235 -5 43 -16 32 -39 -38z m192
-146 c33 -28 62 -55 63 -60 2 -5 -37 -9 -87 -9 l-90 0 21 60 c11 33 23 60 26
60 4 0 34 -23 67 -51z"/>
<path d="M1070 1795 c-5 -14 -21 -30 -35 -37 -30 -14 -32 -33 -4 -48 14 -8 19
-19 17 -38 -2 -22 -7 -27 -29 -24 -15 1 -32 -4 -38 -12 -10 -12 -9 -14 6 -10
10 2 26 -2 36 -10 15 -11 16 -19 8 -34 -5 -10 -8 -28 -5 -40 5 -16 -2 -25 -33
-42 -21 -12 -29 -18 -18 -15 90 29 116 29 162 5 37 -19 44 -28 41 -49 -2 -21
-12 -29 -46 -40 -55 -17 -50 -23 6 -9 77 19 86 -33 11 -59 -23 -8 -27 -12 -14
-12 27 -1 100 36 100 51 0 11 82 37 125 38 22 1 23 2 8 11 -10 5 -18 20 -18
31 0 13 -19 39 -45 64 -39 36 -47 50 -55 96 -12 73 -17 83 -48 97 -62 28 -73
40 -61 64 9 18 9 20 -1 10 -10 -9 -18 -8 -36 4 -13 8 -21 19 -18 24 3 5 3 9
-1 9 -3 0 -10 -11 -15 -25z"/>
<path d="M4871 1784 c-19 -14 -25 -14 -32 -3 -6 9 -9 10 -9 2 0 -6 5 -15 10
-18 16 -10 3 -23 -51 -50 -27 -14 -49 -26 -49 -28 0 -1 -4 -29 -10 -61 -8 -51
-16 -67 -54 -105 -24 -26 -47 -57 -51 -71 -4 -14 -13 -28 -19 -32 -6 -4 -2 -7
9 -7 37 2 125 -26 125 -38 0 -16 73 -53 102 -52 19 1 18 2 -8 10 -40 11 -66
40 -54 59 7 11 17 12 57 3 61 -14 67 -9 11 8 -35 12 -44 19 -46 41 -3 24 3 31
42 50 43 20 49 21 98 9 29 -8 60 -16 68 -18 8 -2 3 2 -11 9 -45 22 -61 39 -48
54 7 9 7 19 -1 34 -9 18 -8 25 6 41 16 18 18 18 36 3 10 -10 18 -12 18 -7 0
18 -28 35 -48 29 -24 -8 -46 17 -37 42 3 11 15 22 25 25 21 5 28 37 8 37 -7 0
-24 11 -38 25 -24 23 -27 24 -49 9z"/>
<path d="M1376 1551 c-3 -4 6 -6 19 -3 14 2 25 6 25 8 0 8 -39 4 -44 -5z"/>
<path d="M4568 1553 c6 -2 18 -2 25 0 6 3 1 5 -13 5 -14 0 -19 -2 -12 -5z"/>
<path d="M4561 1454 c0 -11 3 -14 6 -6 3 7 2 16 -1 19 -3 4 -6 -2 -5 -13z"/>
<path d="M1702 1238 c8 -13 41 -36 73 -51 45 -22 55 -30 46 -41 -19 -23 -129
-67 -204 -81 l-72 -14 85 4 c47 2 108 11 135 21 62 22 128 62 120 74 -3 5 -31
20 -62 35 -32 14 -72 37 -89 50 -41 31 -51 32 -32 3z"/>
<path d="M4230 1242 c-8 -3 -27 -17 -42 -31 -15 -14 -70 -50 -122 -80 -53 -29
-96 -55 -96 -58 0 -10 76 11 85 24 6 7 44 35 85 62 58 38 78 46 87 37 7 -6 28
-49 47 -94 37 -92 46 -106 46 -74 0 26 -58 210 -68 215 -4 2 -14 2 -22 -1z"/>
<path d="M1984 1154 c6 -25 0 -43 -30 -93 l-37 -61 -32 18 c-17 11 -44 28 -60
38 l-28 18 12 -22 c6 -12 30 -31 51 -42 22 -11 40 -24 40 -29 0 -5 -19 -41
-41 -80 -39 -67 -45 -92 -19 -76 12 7 51 67 148 221 l51 82 -31 28 -30 29 6
-31z"/>
<path d="M4192 1058 l-22 -11 21 -11 c12 -6 37 -37 57 -69 l36 -59 -24 -19
c-14 -10 -30 -19 -35 -19 -6 0 -28 29 -49 65 -21 36 -41 65 -44 65 -4 -1 -18
-7 -31 -14 -22 -12 -23 -13 -3 -18 11 -3 36 -31 57 -63 41 -64 43 -59 -37
-101 -27 -13 -48 -27 -48 -30 0 -14 77 10 100 31 30 27 174 120 248 160 28 16
52 34 52 42 0 19 -5 17 -70 -27 -33 -22 -66 -43 -74 -46 -10 -4 -28 17 -56 65
-23 39 -45 71 -49 70 -3 0 -16 -5 -29 -11z"/>
<path d="M3638 1008 c17 -9 29 -34 53 -112 40 -132 49 -156 62 -156 9 0 7 22
-8 97 -7 31 -7 32 39 38 31 5 46 12 46 22 0 12 -6 13 -27 8 -69 -19 -76 -15
-92 53 l-14 62 -41 -1 c-37 0 -39 -1 -18 -11z"/>
<path d="M2285 970 c17 -11 40 -20 53 -20 30 0 155 -31 166 -41 9 -8 -47 -139
-60 -139 -16 0 -236 62 -270 76 -20 8 -38 13 -41 11 -9 -10 59 -49 90 -52 53
-5 107 -17 112 -24 7 -12 -17 -93 -30 -97 -7 -3 -39 4 -71 15 l-59 20 28 -24
c15 -14 38 -25 49 -25 29 0 151 -30 161 -40 5 -4 1 -35 -8 -70 -18 -71 -13
-112 10 -70 17 32 49 149 43 155 -3 3 -27 8 -54 11 -27 3 -51 7 -53 9 -7 8 23
105 33 105 6 0 54 -14 106 -30 71 -22 96 -26 102 -17 5 8 -10 16 -54 25 -34 6
-63 14 -66 17 -2 2 11 26 30 52 54 73 63 94 47 104 -8 5 -25 9 -38 9 -13 0
-70 14 -128 30 -121 35 -139 37 -98 10z"/>
<path d="M1630 971 c0 -5 5 -13 10 -16 7 -4 1 -23 -15 -52 -32 -59 -32 -69 8
-89 17 -9 63 -37 101 -61 43 -28 72 -41 78 -35 6 6 -23 27 -77 57 -47 26 -89
53 -91 60 -3 8 6 34 20 58 25 41 25 45 9 59 -28 23 -43 30 -43 19z"/>
<path d="M3490 934 c-25 -7 -56 -13 -70 -13 -23 -2 -24 -2 -6 -13 25 -14 126
7 126 28 0 8 -1 13 -2 13 -2 -1 -23 -7 -48 -15z"/>
<path d="M3118 904 c20 -14 22 -23 22 -115 l0 -100 -42 3 -43 3 -3 98 c-2 87
-5 97 -22 97 -10 0 -27 3 -37 6 -15 6 -14 3 5 -15 21 -21 22 -29 20 -134 l-3
-111 -50 -13 c-27 -7 -68 -12 -90 -11 l-40 3 -3 88 -3 87 61 0 c33 0 60 4 60
10 0 6 -39 10 -96 10 -93 0 -96 -1 -75 -17 18 -16 21 -31 23 -118 l3 -100 47
2 c25 2 69 12 98 23 28 11 55 20 60 20 6 0 10 -41 10 -95 0 -57 4 -95 10 -95
13 0 12 -10 19 125 l6 120 40 0 40 0 3 -133 c2 -100 6 -132 15 -129 9 3 13 69
17 250 l5 246 -29 5 c-45 9 -52 7 -28 -10z"/>
<path d="M3550 883 c-35 -13 -96 -32 -134 -42 -58 -15 -65 -19 -43 -25 16 -4
40 0 62 11 31 15 37 15 45 3 7 -11 4 -19 -8 -28 -61 -45 -67 -68 -26 -109 22
-22 32 -25 77 -20 41 4 56 10 80 37 47 52 21 110 -50 110 -18 0 -33 5 -33 10
0 6 -8 10 -17 10 -29 1 4 15 65 30 32 7 52 17 52 26 0 8 -1 13 -2 13 -2 -1
-32 -12 -68 -26z m18 -89 c14 -10 22 -26 22 -44 0 -69 -111 -83 -134 -17 -4
13 3 28 23 48 33 33 56 36 89 13z"/>
<path d="M3705 680 c-22 -10 -76 -28 -119 -39 -44 -12 -81 -23 -84 -26 -9 -9
74 -5 84 4 8 8 141 51 156 51 3 0 13 -26 22 -57 9 -32 20 -65 26 -73 19 -31
22 20 5 90 -19 78 -24 80 -90 50z"/>
</g>
</svg>
